0
SECTION
2
HEADER
9
$INSUNITS
70
4
9
$ACADVER
1
AC1014
9
$HANDSEED
5
FFFF
0
ENDSEC
0
SECTION
2
TABLES
0
TABLE
2
VPORT
5
8
100
AcDbSymbolTable
0
ENDTAB
0
TABLE
2
LTYPE
5
5
100
AcDbSymbolTable
0
LTYPE
5
14
100
AcDbSymbolTableRecord
100
AcDbLinetypeTableRecord
2
BYBLOCK
70
0
0
LTYPE
5
15
100
AcDbSymbolTableRecord
100
AcDbLinetypeTableRecord
2
BYLAYER
70
0
0
ENDTAB
0
TABLE
2
LAYER
5
2
100
AcDbSymbolTable
70
2
0
LAYER
5
50
100
AcDbSymbolTableRecord
100
AcDbLayerTableRecord
2
0
70
0
6
CONTINUOUS
0
ENDTAB
0
TABLE
2
STYLE
5
3
100
AcDbSymbolTable
70
1
0
STYLE
5
11
100
AcDbSymbolTableRecord
100
AcDbTextStyleTableRecord
2
STANDARD
70
0
0
ENDTAB
0
TABLE
2
VIEW
5
6
100
AcDbSymbolTable
70
0
0
ENDTAB
0
TABLE
2
UCS
5
7
100
AcDbSymbolTable
70
0
0
ENDTAB
0
TABLE
2
APPID
5
9
100
AcDbSymbolTable
70
2
0
APPID
5
12
100
AcDbSymbolTableRecord
100
AcDbRegAppTableRecord
2
ACAD
70
0
0
ENDTAB
0
TABLE
2
DIMSTYLE
5
A
100
AcDbSymbolTable
70
1
0
ENDTAB
0
TABLE
2
BLOCK_RECORD
5
1
100
AcDbSymbolTable
70
1
0
BLOCK_RECORD
5
1F
100
AcDbSymbolTableRecord
100
AcDbBlockTableRecord
2
*MODEL_SPACE
0
BLOCK_RECORD
5
1B
100
AcDbSymbolTableRecord
100
AcDbBlockTableRecord
2
*PAPER_SPACE
0
ENDTAB
0
ENDSEC
0
SECTION
2
BLOCKS
0
BLOCK
5
20
100
AcDbEntity
100
AcDbBlockBegin
2
*MODEL_SPACE
0
ENDBLK
5
21
100
AcDbEntity
100
AcDbBlockEnd
0
BLOCK
5
1C
100
AcDbEntity
100
AcDbBlockBegin
2
*PAPER_SPACE
0
ENDBLK
5
1D
100
AcDbEntity
100
AcDbBlockEnd
0
ENDSEC
0
SECTION
2
ENTITIES
0
SPLINE
5
100
100
AcDbEntity
8
0
100
AcDbSpline
70
0
71
3
72
9
73
5
74
0
42
0.000000001
43
0.0000000001
44
0.0000000001
40
0
40
0
40
0
40
0
40
0.027148328592695746
40
0.052500781054829561
40
0.052500781054829561
40
0.052500781054829561
40
0.052500781054829561
10
-44.434435639926448
20
-66.410534869914969
30
0
10
-44.342556701073121
20
-66.405101740557882
30
0
10
-44.164876663209327
20
-66.394594886191399
30
0
10
-44.01277049278896
20
-66.302610373440103
30
0
10
-43.939318929263607
20
-66.258191358333562
30
3.5527136788005009e-14
0
SPLINE
5
101
100
AcDbEntity
8
0
100
AcDbSpline
70
0
71
3
72
9
73
5
74
0
42
0.000000001
43
0.0000000001
44
0.0000000001
40
0
40
0
40
0
40
0
40
0.027000581321069424
40
0.059134213663478756
40
0.059134213663478756
40
0.059134213663478756
40
0.059134213663478756
10
-43.939318929263607
20
-66.258191358333562
30
3.5527136788005009e-14
10
-43.873088481927454
20
-66.195676686272421
30
0
10
-43.728036589257741
20
-66.058762746131492
30
0
10
-43.654229848475609
20
-65.87287485235268
30
0
10
-43.614123139926448
20
-65.771863054519628
30
0
0
LINE
5
102
100
AcDbEntity
8
0
100
AcDbLine
10
-43.614123139926448
20
-65.771863054519628
30
0
11
-43.069201384135738
21
-65.839245807414997
31
-4.3368086899420177e-18
0
SPLINE
5
103
100
AcDbEntity
8
0
100
AcDbSpline
70
0
71
3
72
9
73
5
74
0
42
0.000000001
43
0.0000000001
44
0.0000000001
40
0
40
0
40
0
40
0
40
0.046220542185509396
40
0.0894452369084449
40
0.0894452369084449
40
0.0894452369084449
40
0.0894452369084449
10
-43.069201384135738
20
-65.839245807414997
30
0
10
-43.119265649310975
20
-65.987919841674795
30
0
10
-43.216149196052442
20
-66.275631399949674
30
3.5527136788005009e-14
10
-43.439031907229584
20
-66.481142898947652
30
0
10
-43.546740685054317
20
-66.580456983333562
30
3.5527136788005009e-14
0
SPLINE
5
104
100
AcDbEntity
8
0
100
AcDbSpline
70
0
71
3
72
9
73
5
74
0
42
0.000000001
43
0.0000000001
44
0.0000000001
40
0
40
0
40
0
40
0
40
0.044350207050101197
40
0.094153590208087362
40
0.094153590208087362
40
0.094153590208087362
40
0.094153590208087362
10
-43.546740685054317
20
-66.580456983333562
30
3.5527136788005009e-14
10
-43.675718446239301
20
-66.657291608592885
30
3.5527136788005009e-14
10
-43.949532709583053
20
-66.820408227468761
30
0
10
-44.268594969732803
20
-66.835922464158386
30
0
10
-44.437365804263607
20
-66.844128858333576
30
0
0
SPLINE
5
105
100
AcDbEntity
8
0
100
AcDbSpline
70
0
71
3
72
9
73
5
74
0
42
0.000000001
43
0.0000000001
44
0.0000000001
40
0
40
0
40
0
40
0
40
0.062119730752993221
40
0.11879510132472952
40
0.11879510132472952
40
0.11879510132472952
40
0.11879510132472952
10
-44.437365804263607
20
-66.844128858333576
30
0
10
-44.649774009106125
20
-66.830103533644177
30
3.5527136788005009e-14
10
-45.055974324378028
20
-66.803282105936916
30
3.5527136788005009e-14
10
-45.371037999979436
20
-66.547305789262523
30
0
10
-45.521350179263607
20
-66.425183307414954
30
0
0
SPLINE
5
106
100
AcDbEntity
8
0
100
AcDbSpline
70
0
71
3
72
9
73
5
74
0
42
0.000000001
43
0.0000000001
44
0.0000000001
40
0
40
0
40
0
40
0
40
0.058774032814671952
40
0.12696157885973144
40
0.12696157885973144
40
0.12696157885973144
40
0.12696157885973144
10
-45.521350179263607
20
-66.425183307414954
30
0
10
-45.637391079009006
20
-66.262294409014359
30
0
10
-45.88805851049932
20
-65.91042759421066
30
0
10
-45.908701033130086
20
-65.477195993114805
30
0
10
-45.919787560054317
20
-65.244519304519628
30
0
0
SPLINE
5
107
100
AcDbEntity
8
0
100
AcDbSpline
70
0
71
3
72
9
73
5
74
0
42
0.000000001
43
0.0000000001
44
0.0000000001
40
0
40
0
40
0
40
0
40
0.070455324740648001
40
0.13077862944137952
40
0.13077862944137952
40
0.13077862944137952
40
0.13077862944137952
10
-45.919787560054317
20
-65.244519304519628
30
0
10
-45.908819903056397
20
-65.004178785344919
30
0
10
-45.888461822873658
20
-64.55806057053853
30
3.5527136788005009e-14
10
-45.633222928253581
20
-64.193792433059372
30
0
10
-45.515490744658962
20
-64.025769125705693
30
0
0
SPLINE
5
108
100
AcDbEntity
8
0
100
AcDbSpline
70
0
71
3
72
9
73
5
74
0
42
0.000000001
43
0.0000000001
44
0.0000000001
40
0
40
0
40
0
40
0
40
0.056690217953709023
40
0.11613416141141149
40
0.11613416141141149
40
0.11613416141141149
40
0.11613416141141149
10
-45.515490744658962
20
-64.025769125705693
30
0
10
-45.368275118738964
20
-63.89932418075766
30
3.5527136788005009e-14
10
-45.066692872630192
20
-63.640292231749413
30
0
10
-44.669809654303506
20
-63.608465918278142
30
0
10
-44.466662679263607
20
-63.592175435310317
30
0
0
SPLINE
5
109
100
AcDbEntity
8
0
100
AcDbSpline
70
0
71
3
72
9
73
5
74
0
42
0.000000001
43
0.0000000001
44
0.0000000001
40
0
40
0
40
0
40
0
40
0.057675700177957305
40
0.11302802474481054
40
0.11302802474481054
40
0.11302802474481054
40
0.11302802474481054
10
-44.466662679263607
20
-63.592175435310317
30
0
10
-44.26959621384281
20
-63.608374451700477
30
0
10
-43.883401798149052
20
-63.640119932374965
30
0
10
-43.590548117779733
20
-63.893093412380168
30
3.5527136788005009e-14
10
-43.447131190845028
20
-64.016980122810324
30
0
0
SPLINE
5
110
100
AcDbEntity
8
0
100
AcDbSpline
70
0
71
3
72
9
73
5
74
0
42
0.000000001
43
0.0000000001
44
0.0000000001
40
0
40
0
40
0
40
0
40
0.059105542875040093
40
0.12822462231339471
40
0.12822462231339471
40
0.12822462231339471
40
0.12822462231339471
10
-43.447131190845028
20
-64.016980122810324
30
0
10
-43.331961189968297
20
-64.181724730886671
30
0
10
-43.08210932928116
20
-64.539124631491887
30
0
10
-43.062300997371139
20
-64.976517378416588
30
0
10
-43.051623378345028
20
-65.212292563205693
30
3.5527136788005009e-14
0
SPLINE
5
111
100
AcDbEntity
8
0
100
AcDbSpline
70
0
71
3
72
9
73
5
74
0
42
0.000000001
43
0.0000000001
44
0.0000000001
40
0
40
0
40
0
40
0
40
0.0058598321499859713
40
0.014065924179770324
40
0.014065924179770324
40
0.014065924179770324
40
0.014065924179770324
10
-43.051623378345028
20
-65.212292563205693
30
3.5527136788005009e-14
10
-43.051809220982769
20
-65.231824955052133
30
0
10
-43.052255317114017
20
-65.278710452064615
30
0
10
-43.053706388375005
20
-65.325576211440278
30
3.5527136788005009e-14
10
-43.054552946635738
20
-65.352917801624272
30
0
0
LINE
5
112
100
AcDbEntity
8
0
100
AcDbLine
10
-43.054552946635738
20
-65.352917801624272
30
3.8987713292479914e-29
11
-45.374865804263607
21
-65.352917801624258
31
0
0
SPLINE
5
113
100
AcDbEntity
8
0
100
AcDbSpline
70
0
71
3
72
9
73
5
74
0
42
0.000000001
43
0.0000000001
44
0.0000000001
40
0
40
0
40
0
40
0
40
0.046095182471829942
40
0.085047704755480277
40
0.085047704755480277
40
0.085047704755480277
40
0.085047704755480277
10
-45.374865804263607
20
-65.352917801624272
30
0
10
-45.359627131734506
20
-65.509139308679792
30
0
10
-45.331511088959076
20
-65.797375082920041
30
0
10
-45.162318272401279
20
-66.031049334358883
30
0
10
-45.084826622554317
20
-66.138073992019613
30
0
0
SPLINE
5
114
100
AcDbEntity
8
0
100
AcDbSpline
70
0
71
3
72
9
73
5
74
0
42
0.000000001
43
0.0000000001
44
0.0000000001
40
0
40
0
40
0
40
0
40
0.035719452395293436
40
0.072104930961726155
40
0.072104930961726155
40
0.072104930961726155
40
0.072104930961726155
10
-45.084826622554317
20
-66.138073992019613
30
0
10
-44.991951709980157
20
-66.21753993967431
30
0
10
-44.804470135931226
20
-66.377953559850781
30
0
10
-44.558537689884403
20
-66.399607760650994
30
0
10
-44.434435639926448
20
-66.410534869914969
30
0
0
LWPOLYLINE
5
115
100
AcDbEntity
8
0
100
AcDbPolyline
90
4
70
1
43
0.0
10
-38.876818690845035
20
-63.085339557414983
10
-38.876818690845035
20
-62.478894185310324
10
-39.404162440845035
20
-62.478894185310324
10
-39.404162440845035
20
-63.085339557414983
0
SPLINE
5
116
100
AcDbEntity
8
0
100
AcDbSpline
70
0
71
3
72
9
73
5
74
0
42
0.000000001
43
0.0000000001
44
0.0000000001
40
0
40
0
40
0
40
0
40
0.021955453178468563
40
0.045593968071295801
40
0.045593968071295801
40
0.045593968071295801
40
0.045593968071295801
10
-18.972521100589294
20
-67.913464795833548
30
0
10
-19.037444706379056
20
-67.949339777625411
30
0
10
-19.172268833459935
20
-68.023839846518527
30
0
10
-19.326270595354341
20
-68.032184887141668
30
0
10
-19.406113896914977
20
-68.036511432414983
30
3.5527136788005009e-14
0
SPLINE
5
117
100
AcDbEntity
8
0
100
AcDbSpline
70
0
71
3
72
9
73
5
74
0
42
0.000000001
43
0.0000000001
44
0.0000000001
40
0
40
0
40
0
40
0
40
0.016193649613434842
40
0.034707013437419332
40
0.034707013437419332
40
0.034707013437419332
40
0.034707013437419332
10
-19.406113896914977
20
-68.036511432414983
30
3.5527136788005009e-14
10
-19.460199175781113
20
-68.033175250527677
30
0
10
-19.576117362550839
20
-68.026024984074056
30
0
10
-19.686876922789992
20
-67.990831436159468
30
3.5527136788005009e-14
10
-19.745958123752136
20
-67.972058545833562
30
0
0
LINE
5
118
100
AcDbEntity
8
0
100
AcDbLine
10
-19.745958123752136
20
-67.972058545833562
30
1.4998803864514756e-29
11
-19.804551873752136
21
-67.476941239124272
31
3.4694469519536142e-17
0
SPLINE
5
119
100
AcDbEntity
8
0
100
AcDbSpline
70
0
71
3
72
9
73
5
74
0
42
0.000000001
43
0.0000000001
44
0.0000000001
40
0
40
0
40
0
40
0
40
0.016563859720215367
40
0.030602068971495325
40
0.030602068971495325
40
0.030602068971495325
40
0.030602068971495325
10
-19.804551873752136
20
-67.476941239124287
30
0
10
-19.750885241225284
20
-67.490583999383972
30
3.5527136788005009e-14
10
-19.651735042069095
20
-67.515789277470077
30
0
10
-19.549632789021075
20
-67.521291886232873
30
0
10
-19.502795014926452
20
-67.523816119914969
30
0
0
SPLINE
5
120
100
AcDbEntity
8
0
100
AcDbSpline
70
0
71
3
72
9
73
5
74
0
42
0.000000001
43
0.0000000001
44
0.0000000001
40
0
40
0
40
0
40
0
40
0.015887937124412131
40
0.028953907670906782
40
0.028953907670906782
40
0.028953907670906782
40
0.028953907670906782
10
-19.502795014926452
20
-67.523816119914969
30
0
10
-19.449276189393604
20
-67.522480687313646
30
3.5527136788005009e-14
10
-19.351744387687745
20
-67.520047017546659
30
0
10
-19.262029838670362
20
-67.482269949812078
30
0
10
-19.221544538089294
20
-67.465222369914969
30
0
0
SPLINE
5
121
100
AcDbEntity
8
0
100
AcDbSpline
70
0
71
3
72
9
73
5
74
0
42
0.000000001
43
0.0000000001
44
0.0000000001
40
0
40
0
40
0
40
0
40
0.011895230430205746
40
0.024020942233811914
40
0.024020942233811914
40
0.024020942233811914
40
0.024020942233811914
10
-19.221544538089294
20
-67.465222369914969
30
0
10
-19.187869981521789
20
-67.443572113279188
30
0
10
-19.11986839190963
20
-67.399852105747783
30
3.5527136788005009e-14
10
-19.072569709490764
20
-67.334267124358021
30
0
10
-19.048693452426452
20
-67.301159989124258
30
0
0
SPLINE
5
122
100
AcDbEntity
8
0
100
AcDbSpline
70
0
71
3
72
9
73
5
74
0
42
0.000000001
43
0.0000000001
44
0.0000000001
40
0
40
0
40
0
40
0
40
0.015234549915796673
40
0.042468943004890979
40
0.042468943004890979
40
0.042468943004890979
40
0.042468943004890979
10
-19.048693452426452
20
-67.301159989124258
30
0
10
-19.026276348700296
20
-67.255553577851401
30
0
10
-18.963784794585287
20
-67.128417817903809
30
0
10
-18.91734283841496
20
-66.994475797659746
30
0
10
-18.887560639926452
20
-66.908581744914969
30
0
0
SPLINE
5
123
100
AcDbEntity
8
0
100
AcDbSpline
70
0
71
3
72
9
73
5
74
0
42
0.000000001
43
0.0000000001
44
0.0000000001
40
0
40
0
40
0
40
0
40
0.0057447009402356924
40
0.013717060183979682
40
0.013717060183979682
40
0.013717060183979682
40
0.013717060183979682
10
-18.887560639926452
20
-66.908581744914969
30
0
10
-18.881283872636022
20
-66.890489780081438
30
0
10
-18.866296357083957
20
-66.847290217031926
30
0
10
-18.850099045275815
20
-66.804528498540861
30
0
10
-18.840685163089294
20
-66.779675375705722
30
0
0
LINE
5
124
100
AcDbEntity
8
0
100
AcDbLine
10
-18.840685163089297
20
-66.779675375705722
30
0
11
-20.021348271914977
21
-63.662488054519663
31
2.7755575615628914e-16
0
LINE
5
125
100
AcDbEntity
8
0
100
AcDbLine
10
-20.021348271914977
20
-63.662488054519663
30
2.7755575615628914e-16
11
-19.452989373752136
21
-63.662488054519656
31
0
0
LINE
5
126
100
AcDbEntity
8
0
100
AcDbLine
10
-19.452989373752136
20
-63.662488054519656
30
0
11
-18.805527959414977
21
-65.464245867019628
31
-2.7755575615628914e-16
0
SPLINE
5
127
100
AcDbEntity
8
0
100
AcDbSpline
70
0
71
3
72
9
73
5
74
0
42
0.000000001
43
0.0000000001
44
0.0000000001
40
0
40
0
40
0
40
0
40
0.037127964138783359
40
0.075539371552209494
40
0.075539371552209494
40
0.075539371552209494
40
0.075539371552209494
10
-18.805527959414977
20
-65.464245867019613
30
0
10
-18.76436298017197
20
-65.581003777558692
30
0
10
-18.680610026458918
20
-65.818555698070782
30
0
10
-18.613876917587234
20
-66.061442433243343
30
0
10
-18.579943452426452
20
-66.184949170833548
30
0
0
SPLINE
5
128
100
AcDbEntity
8
0
100
AcDbSpline
70
0
71
3
72
9
73
5
74
0
42
0.000000001
43
0.0000000001
44
0.0000000001
40
0
40
0
40
0
40
0
40
0.037245349976655739
40
0.074164462679523813
40
0.074164462679523813
40
0.074164462679523813
40
0.074164462679523813
10
-18.579943452426452
20
-66.184949170833548
30
0
10
-18.548298688905479
20
-66.064843589516315
30
0
10
-18.4852863428106
20
-65.825684448609067
30
0
10
-18.403738989857455
20
-65.592195415054292
30
3.5527136788005009e-14
10
-18.363144670077819
20
-65.475964438205693
30
3.5527136788005009e-14
0
LINE
5
129
100
AcDbEntity
8
0
100
AcDbLine
10
-18.363144670077819
20
-65.475964438205693
30
3.5527136788005009e-14
11
-17.698107038089294
21
-63.662488054519642
31
3.5804692544161298e-14
0
LINE
5
130
100
AcDbEntity
8
0
100
AcDbLine
10
-17.698107038089294
20
-63.662488054519642
30
3.5804692544161298e-14
11
-17.170763288089294
21
-63.662488054519656
31
0
0
LINE
5
131
100
AcDbEntity
8
0
100
AcDbLine
10
-17.170763288089294
20
-63.662488054519656
30
0
11
-18.354356561252136
21
-66.826550852542852
31
-5.5511151231257827e-16
0
SPLINE
5
132
100
AcDbEntity
8
0
100
AcDbSpline
70
0
71
3
72
9
73
5
74
0
42
0.000000001
43
0.0000000001
44
0.0000000001
40
0
40
0
40
0
40
0
40
0.046475148443621328
40
0.076589910560956945
40
0.076589910560956945
40
0.076589910560956945
40
0.076589910560956945
10
-18.354356561252136
20
-66.826550852542852
30
3.5527136788005009e-14
10
-18.408087149870664
20
-66.97197588746495
30
0
10
-18.496633848794581
20
-67.211632796393843
30
0
10
-18.606899560324472
20
-67.442018814000292
30
0
10
-18.650255475589294
20
-67.532605420833562
30
3.5527136788005009e-14
0
SPLINE
5
133
100
AcDbEntity
8
0
100
AcDbSpline
70
0
71
3
72
9
73
5
74
0
42
0.000000001
43
0.0000000001
44
0.0000000001
40
0
40
0
40
0
40
0
40
0.027139257090465604
40
0.050265577163566326
40
0.050265577163566326
40
0.050265577163566326
40
0.050265577163566326
10
-18.650255475589294
20
-67.532605420833562
30
3.5527136788005009e-14
10
-18.696027891460897
20
-67.61170322556049
30
0
10
-18.780804600502265
20
-67.758203065026123
30
0
10
-18.912109838430332
20
-67.864540696349138
30
3.5527136788005009e-14
10
-18.972521100589294
20
-67.913464795833548
30
0
0
LINE
5
134
100
AcDbEntity
8
0
100
AcDbLine
10
-34.209826264926456
20
-65.074597489124258
30
0
11
-34.209826264926456
21
-66.77381623912423
31
-1.3877787807814457e-16
0
LINE
5
135
100
AcDbEntity
8
0
100
AcDbLine
10
-34.209826264926456
20
-66.77381623912423
30
-1.3877787807814457e-16
11
-34.737170014926456
21
-66.77381623912423
31
3.5527136788005009e-14
0
LINE
5
136
100
AcDbEntity
8
0
100
AcDbLine
10
-34.737170014926456
20
-66.77381623912423
30
3.5527136788005009e-14
11
-34.737170014926456
21
-63.662488054519635
31
3.5804692544161298e-14
0
LINE
5
137
100
AcDbEntity
8
0
100
AcDbLine
10
-34.737170014926456
20
-63.662488054519635
30
3.5804692544161298e-14
11
-34.262560878345035
21
-63.662488054519656
31
0
0
LINE
5
138
100
AcDbEntity
8
0
100
AcDbLine
10
-34.262560878345035
20
-63.662488054519656
30
0
11
-34.262560878345035
21
-64.104870747810324
31
-6.9388939039072284e-17
0
SPLINE
5
139
100
AcDbEntity
8
0
100
AcDbSpline
70
0
71
3
72
9
73
5
74
0
42
0.000000001
43
0.0000000001
44
0.0000000001
40
0
40
0
40
0
40
0
40
0.056865819837616439
40
0.11541492086814858
40
0.11541492086814858
40
0.11541492086814858
40
0.11541492086814858
10
-34.262560878345035
20
-64.104870747810324
30
0
10
-34.134073751301102
20
-63.955343572341917
30
0
10
-33.87329615866819
20
-63.651863077844453
30
0
10
-33.474587897193643
20
-63.612263829306215
30
0
10
-33.272326264926456
20
-63.592175435310317
30
0
0
SPLINE
5
140
100
AcDbEntity
8
0
100
AcDbSpline
70
0
71
3
72
9
73
5
74
0
42
0.000000001
43
0.0000000001
44
0.0000000001
40
0
40
0
40
0
40
0
40
0.02707473128449343
40
0.05285781812593765
40
0.05285781812593765
40
0.05285781812593765
40
0.05285781812593765
10
-33.272326264926456
20
-63.592175435310317
30
0
10
-33.181534303211293
20
-63.596014594675808
30
3.5527136788005009e-14
10
-33.004281759161657
20
-63.6035097600152
30
0
10
-32.837872306653274
20
-63.664812251951155
30
0
10
-32.756700788089297
20
-63.694714497810338
30
0
0
SPLINE
5
141
100
AcDbEntity
8
0
100
AcDbSpline
70
0
71
3
72
9
73
5
74
0
42
0.000000001
43
0.0000000001
44
0.0000000001
40
0
40
0
40
0
40
0
40
0.023739256490223869
40
0.04461067200937395
40
0.04461067200937395
40
0.04461067200937395
40
0.04461067200937395
10
-32.756700788089297
20
-63.694714497810338
30
0
10
-32.684075976727314
20
-63.728627569422791
30
0
10
-32.547599855803057
20
-63.792356815330479
30
0
10
-32.448549518280252
20
-63.905466986556611
30
3.5527136788005009e-14
10
-32.402208123752139
20
-63.958386372810345
30
0
0
SPLINE
5
142
100
AcDbEntity
8
0
100
AcDbSpline
70
0
71
3
72
9
73
5
74
0
42
0.000000001
43
0.0000000001
44
0.0000000001
40
0
40
0
40
0
40
0
40
0.020523634856834335
40
0.042510039544266659
40
0.042510039544266659
40
0.042510039544266659
40
0.042510039544266659
10
-32.402208123752139
20
-63.958386372810345
30
0
10
-32.365831254940673
20
-64.016851029947162
30
0
10
-32.290484848592151
20
-64.137947263833937
30
0
10
-32.255988185425373
20
-64.276417337355994
30
3.5527136788005009e-14
10
-32.238146339007876
20
-64.348034750705708
30
3.5527136788005009e-14
0
SPLINE
5
143
100
AcDbEntity
8
0
100
AcDbSpline
70
0
71
3
72
9
73
5
74
0
42
0.000000001
43
0.0000000001
44
0.0000000001
40
0
40
0
40
0
40
0
40
0.020261097939877518
40
0.051397643163022019
40
0.051397643163022019
40
0.051397643163022019
40
0.051397643163022019
10
-32.238146339007876
20
-64.348034750705708
30
3.5527136788005009e-14
10
-32.229691634611036
20
-64.415098596244249
30
0
10
-32.208244036809234
20
-64.585223809219329
30
0
10
-32.208621062763271
20
-64.756793584223558
30
0
10
-32.208849464007876
20
-64.860730063205722
30
3.5527136788005009e-14
0
LINE
5
144
100
AcDbEntity
8
0
100
AcDbLine
10
-32.208849464007876
20
-64.860730063205722
30
3.5527136788005016e-14
11
-32.208849464007876
21
-66.773816239124258
31
3.5388358909926865e-14
0
LINE
5
145
100
AcDbEntity
8
0
100
AcDbLine
10
-32.208849464007876
20
-66.773816239124258
30
3.5388358909926865e-14
11
-32.736193214007876
21
-66.77381623912423
31
3.5527136788005009e-14
0
LINE
5
146
100
AcDbEntity
8
0
100
AcDbLine
10
-32.736193214007876
20
-66.77381623912423
30
3.5527136788005009e-14
11
-32.736193214007876
21
-64.881238233333548
31
3.5665914666083154e-14
0
SPLINE
5
147
100
AcDbEntity
8
0
100
AcDbSpline
70
0
71
3
72
9
73
5
74
0
42
0.000000001
43
0.0000000001
44
0.0000000001
40
0
40
0
40
0
40
0
40
0.028167017641722344
40
0.048616274559668063
40
0.048616274559668063
40
0.048616274559668063
40
0.048616274559668063
10
-32.736193214007876
20
-64.881238233333562
30
3.5527136788005009e-14
10
-32.736668636870142
20
-64.786827439864823
30
0
10
-32.737489216766036
20
-64.62387440326529
30
0
10
-32.779883717578841
20
-64.466827384202816
30
3.5527136788005009e-14
10
-32.797715936252139
20
-64.400769364124272
30
0
0
SPLINE
5
148
100
AcDbEntity
8
0
100
AcDbSpline
70
0
71
3
72
9
73
5
74
0
42
0.000000001
43
0.0000000001
44
0.0000000001
40
0
40
0
40
0
40
0
40
0.016781519933010691
40
0.034158686303481303
40
0.034158686303481303
40
0.034158686303481303
40
0.034158686303481303
10
-32.797715936252139
20
-64.400769364124272
30
0
10
-32.822698026498919
20
-64.349604632585098
30
0
10
-32.87354892602125
20
-64.245459118863778
30
0
10
-32.96892360514218
20
-64.179460984588161
30
3.5527136788005009e-14
10
-33.017442498752139
20
-64.145886492019628
30
0
0
SPLINE
5
149
100
AcDbEntity
8
0
100
AcDbSpline
70
0
71
3
72
9
73
5
74
0
42
0.000000001
43
0.0000000001
44
0.0000000001
40
0
40
0
40
0
40
0
40
0.018407336884850991
40
0.038257230284632453
40
0.038257230284632453
40
0.038257230284632453
40
0.038257230284632453
10
-33.017442498752139
20
-64.145886492019628
30
0
10
-33.072755553938762
20
-64.117699196859462
30
0
10
-33.187716468885839
20
-64.059115608761473
30
0
10
-33.31672046723704
20
-64.052591776546407
30
3.5527136788005009e-14
10
-33.383654628345035
20
-64.049206864124272
30
3.5527136788005009e-14
0
SPLINE
5
150
100
AcDbEntity
8
0
100
AcDbSpline
70
0
71
3
72
9
73
5
74
0
42
0.000000001
43
0.0000000001
44
0.0000000001
40
0
40
0
40
0
40
0
40
0.031872486744014487
40
0.063174433208241454
40
0.063174433208241454
40
0.063174433208241454
40
0.063174433208241454
10
-33.383654628345035
20
-64.049206864124272
30
3.5527136788005009e-14
10
-33.491797022741039
20
-64.057791718883678
30
0
10
-33.706145985425401
20
-64.074807753370052
30
0
10
-33.880347720776548
20
-64.200697557363029
30
3.5527136788005009e-14
10
-33.966661964007876
20
-64.263073992019613
30
0
0
SPLINE
5
151
100
AcDbEntity
8
0
100
AcDbSpline
70
0
71
3
72
9
73
5
74
0
42
0.000000001
43
0.0000000001
44
0.0000000001
40
0
40
0
40
0
40
0
40
0.035950618859506935
40
0.086488482737383993
40
0.086488482737383993
40
0.086488482737383993
40
0.086488482737383993
10
-33.966661964007876
20
-64.263073992019613
30
0
10
-34.037091239175481
20
-64.363083791525938
30
0
10
-34.206527019219919
20
-64.603683149550193
30
0
10
-34.208609441778684
20
-64.900915526644766
30
0
10
-34.209826264926456
20
-65.074597489124258
30
0
0
LINE
5
152
100
AcDbEntity
8
0
100
AcDbLine
10
-25.555527482577819
20
-62.478894185310324
30
3.5527136788005009e-14
11
-25.555527482577819
21
-66.773816239124244
31
3.5527136788005009e-14
0
LINE
5
153
100
AcDbEntity
8
0
100
AcDbLine
10
-25.555527482577819
20
-66.773816239124244
30
3.5527136788005009e-14
11
-26.044786248752136
21
-66.77381623912423
31
3.5527136788005009e-14
0
LINE
5
154
100
AcDbEntity
8
0
100
AcDbLine
10
-26.044786248752136
20
-66.77381623912423
30
3.5527136788005009e-14
11
-26.044786248752136
21
-66.381237994914969
31
3.5561831257524545e-14
0
SPLINE
5
155
100
AcDbEntity
8
0
100
AcDbSpline
70
0
71
3
72
9
73
5
74
0
42
0.000000001
43
0.0000000001
44
0.0000000001
40
0
40
0
40
0
40
0
40
0.050408414331593286
40
0.10218195410823885
40
0.10218195410823885
40
0.10218195410823885
40
0.10218195410823885
10
-26.044786248752136
20
-66.381237994914997
30
3.5527136788005009e-14
10
-26.15626503436275
20
-66.516241183704238
30
3.5527136788005009e-14
10
-26.382241596140194
20
-66.78990362328399
30
3.5527136788005009e-14
10
-26.735774166856817
20
-66.825893508019703
30
3.5527136788005009e-14
10
-26.914902005740661
20
-66.844128858333576
30
0
0
SPLINE
5
156
100
AcDbEntity
8
0
100
AcDbSpline
70
0
71
3
72
9
73
5
74
0
42
0.000000001
43
0.0000000001
44
0.0000000001
40
0
40
0
40
0
40
0
40
0.036108121426092564
40
0.072346736877849566
40
0.072346736877849566
40
0.072346736877849566
40
0.072346736877849566
10
-26.914902005740661
20
-66.844128858333576
30
0
10
-27.036578237842853
20
-66.835522452011332
30
0
10
-27.280370437506413
20
-66.818278535987318
30
0
10
-27.493629117490229
20
-66.698865130757227
30
0
10
-27.600450788089294
20
-66.639050733333548
30
0
0
SPLINE
5
157
100
AcDbEntity
8
0
100
AcDbSpline
70
0
71
3
72
9
73
5
74
0
42
0.000000001
43
0.0000000001
44
0.0000000001
40
0
40
0
40
0
40
0
40
0.036938542431015187
40
0.075563970705781192
40
0.075563970705781192
40
0.075563970705781192
40
0.075563970705781192
10
-27.600450788089294
20
-66.639050733333548
30
0
10
-27.698838079338785
20
-66.562667906399739
30
3.5527136788005009e-14
10
-27.900105750029439
20
-66.406414050210614
30
0
10
-28.021696604596848
20
-66.182313400735694
30
0
10
-28.083849225589294
20
-66.067761670833562
30
3.5527136788005009e-14
0
SPLINE
5
158
100
AcDbEntity
8
0
100
AcDbSpline
70
0
71
3
72
9
73
5
74
0
42
0.000000001
43
0.0000000001
44
0.0000000001
40
0
40
0
40
0
40
0
40
0.041622979673352843
40
0.086866804907603568
40
0.086866804907603568
40
0.086866804907603568
40
0.086866804907603568
10
-28.083849225589294
20
-66.067761670833562
30
3.5527136788005009e-14
10
-28.133385296199563
20
-65.937131056321959
30
3.5527136788005009e-14
10
-28.236766654654936
20
-65.664506073805285
30
0
10
-28.247946974083543
20
-65.372941009946999
30
0
10
-28.253770146914977
20
-65.221081864124272
30
0
0
SPLINE
5
159
100
AcDbEntity
8
0
100
AcDbSpline
70
0
71
3
72
9
73
5
74
0
42
0.000000001
43
0.0000000001
44
0.0000000001
40
0
40
0
40
0
40
0
40
0.044554212690359682
40
0.086205541704543087
40
0.086205541704543087
40
0.086205541704543087
40
0.086205541704543087
10
-28.253770146914977
20
-65.221081864124272
30
0
10
-28.248216841801558
20
-65.071747985123139
30
3.5527136788005009e-14
10
-28.237472051429439
20
-64.78280992165422
30
3.5527136788005009e-14
10
-28.14377069332037
20
-64.509422375445808
30
3.5527136788005009e-14
10
-28.098497663089294
20
-64.377331625705693
30
-3.5527136788005009e-14
0
SPLINE
5
160
100
AcDbEntity
8
0
100
AcDbSpline
70
0
71
3
72
9
73
5
74
0
42
0.000000001
43
0.0000000001
44
0.0000000001
40
0
40
0
40
0
40
0
40
0.038818763627342386
40
0.075528530663901416
40
0.075528530663901416
40
0.075528530663901416
40
0.075528530663901416
10
-28.098497663089294
20
-64.377331625705693
30
-3.5527136788005009e-14
10
-28.041788190642624
20
-64.258831625618299
30
0
10
-27.931450232181611
20
-64.02826964852413
30
0
10
-27.730395678874405
20
-63.870840370262975
30
0
10
-27.632675443240661
20
-63.794323693996382
30
0
0
SPLINE
5
161
100
AcDbEntity
8
0
100
AcDbSpline
70
0
71
3
72
9
73
5
74
0
42
0.000000001
43
0.0000000001
44
0.0000000001
40
0
40
0
40
0
40
0
40
0.036212142463095572
40
0.073107790079875987
40
0.073107790079875987
40
0.073107790079875987
40
0.073107790079875987
10
-27.632675443240661
20
-63.794323693996382
30
0
10
-27.525521417183544
20
-63.735365207016301
30
0
10
-27.309190829972877
20
-63.616335390043702
30
0
10
-27.06272565807485
20
-63.600278792759383
30
0
10
-26.938340936252136
20
-63.592175435310317
30
0
0
SPLINE
5
162
100
AcDbEntity
8
0
100
AcDbSpline
70
0
71
3
72
9
73
5
74
0
42
0.000000001
43
0.0000000001
44
0.0000000001
40
0
40
0
40
0
40
0
40
0.026756056318944468
40
0.051933648416205416
40
0.051933648416205416
40
0.051933648416205416
40
0.051933648416205416
10
-26.938340936252136
20
-63.592175435310317
30
0
10
-26.848341691818639
20
-63.59654315657658
30
0
10
-26.673652677024492
20
-63.605020926914591
30
3.5527136788005009e-14
10
-26.514514549441671
20
-63.677267259765536
30
3.5527136788005009e-14
10
-26.437363896914977
20
-63.712292503601027
30
0
0
SPLINE
5
163
100
AcDbEntity
8
0
100
AcDbSpline
70
0
71
3
72
9
73
5
74
0
42
0.000000001
43
0.0000000001
44
0.0000000001
40
0
40
0
40
0
40
0
40
0.024093038637706381
40
0.04747119742532703
40
0.04747119742532703
40
0.04747119742532703
40
0.04747119742532703
10
-26.437363896914977
20
-63.712292503601027
30
0
10
-26.367897982622125
20
-63.753915597200987
30
0
10
-26.231027321294857
20
-63.835926759157225
30
3.5527136788005009e-14
10
-26.129794992162164
20
-63.95920085157023
30
3.5527136788005009e-14
10
-26.079941068240661
20
-64.019909691101034
30
0
0
LINE
5
164
100
AcDbEntity
8
0
100
AcDbLine
10
-26.079941068240664
20
-64.019909691101034
30
-5.6464128229318861e-30
11
-26.079941068240661
21
-62.478894185310338
31
1.3877787807814457e-16
0
LINE
5
165
100
AcDbEntity
8
0
100
AcDbLine
10
-26.079941068240661
20
-62.478894185310338
30
1.3877787807814457e-16
11
-25.555527482577819
21
-62.478894185310324
31
3.5527136788005009e-14
0
SPLINE
5
166
100
AcDbEntity
8
0
100
AcDbSpline
70
0
71
3
72
9
73
5
74
0
42
0.000000001
43
0.0000000001
44
0.0000000001
40
0
40
0
40
0
40
0
40
0.054682356640973977
40
0.10799773259987888
40
0.10799773259987888
40
0.10799773259987888
40
0.10799773259987888
10
-52.297176078515704
20
-78.942703485731556
30
0
10
-52.461724105175165
20
-78.858719877428371
30
0
10
-52.786706693246153
20
-78.692852130874428
30
3.5527136788005009e-14
10
-53.010777518422231
20
-78.405080704664968
30
0
10
-53.121394843416866
20
-78.263016224150093
30
3.5527136788005009e-14
0
SPLINE
5
167
100
AcDbEntity
8
0
100
AcDbSpline
70
0
71
3
72
9
73
5
74
0
42
0.000000001
43
0.0000000001
44
0.0000000001
40
0
40
0
40
0
40
0
40
0.053651285631076975
40
0.10881694275212578
40
0.10881694275212578
40
0.10881694275212578
40
0.10881694275212578
10
-53.121394843416866
20
-78.263016224150093
30
3.5527136788005009e-14
10
-53.208665169050008
20
-78.104492279669046
30
3.5527136788005009e-14
10
-53.385669129284672
20
-77.782969863411282
30
0
10
-53.417671101874866
20
-77.417197313027216
30
0
10
-53.43389476891106
20
-77.231765866522238
30
0
0
LINE
5
168
100
AcDbEntity
8
0
100
AcDbLine
10
-53.43389476891106
20
-77.231765866522238
30
-3.63918181185356e-31
11
-52.719051048713382
21
-77.169266224150107
31
8.6736173798840355e-18
0
SPLINE
5
169
100
AcDbEntity
8
0
100
AcDbSpline
70
0
71
3
72
9
73
5
74
0
42
0.000000001
43
0.0000000001
44
0.0000000001
40
0
40
0
40
0
40
0
40
0.040050589229564837
40
0.074995282263263768
40
0.074995282263263768
40
0.074995282263263768
40
0.074995282263263768
10
-52.719051048713382
20
-77.169266224150107
30
3.5527136788005009e-14
10
-52.698922728447698
20
-77.30247761095994
30
0
10
-52.661232170359824
20
-77.55191777517885
30
0
10
-52.540794848608421
20
-77.773192340674314
30
0
10
-52.484676048713382
20
-77.876297116522238
30
0
0
SPLINE
5
170
100
AcDbEntity
8
0
100
AcDbSpline
70
0
71
3
72
9
73
5
74
0
42
0.000000001
43
0.0000000001
44
0.0000000001
40
0
40
0
40
0
40
0
40
0.03439553694471377
40
0.073690265409073238
40
0.073690265409073238
40
0.073690265409073238
40
0.073690265409073238
10
-52.484676048713382
20
-77.876297116522238
30
0
10
-52.4098536731195
20
-77.96484322214252
30
0
10
-52.249551459349313
20
-78.154547660674268
30
0
10
-52.025842201752184
20
-78.263507849083737
30
0
10
-51.906551078515704
20
-78.321609974150064
30
0
0
SPLINE
5
171
100
AcDbEntity
8
0
100
AcDbSpline
70
0
71
3
72
9
73
5
74
0
42
0.000000001
43
0.0000000001
44
0.0000000001
40
0
40
0
40
0
40
0
40
0.043373676091675493
40
0.089950090689807527
40
0.089950090689807527
40
0.089950090689807527
40
0.089950090689807527
10
-51.906551078515704
20
-78.321609974150064
30
0
10
-51.769565429972161
20
-78.370583831788935
30
3.5527136788005009e-14
10
-51.48547902964836
20
-78.47214780636952
30
0
10
-51.183836200444389
20
-78.483632194362542
30
0
10
-51.027644679504093
20
-78.489578843359396
30
0
0
SPLINE
5
172
100
AcDbEntity
8
0
100
AcDbSpline
70
0
71
3
72
9
73
5
74
0
42
0.000000001
43
0.0000000001
44
0.0000000001
40
0
40
0
40
0
40
0
40
0.040947312193078088
40
0.077973984662009027
40
0.077973984662009027
40
0.077973984662009027
40
0.077973984662009027
10
-51.027644679504093
20
-78.489578843359396
30
0
10
-50.890444915318298
20
-78.485373876290524
30
3.5527136788005009e-14
10
-50.629182045174055
20
-78.477366561031673
30
0
10
-50.380234702299248
20
-78.398244378883703
30
0
10
-50.262019739108737
20
-78.360672474150093
30
0
0
SPLINE
5
173
100
AcDbEntity
8
0
100
AcDbSpline
70
0
71
3
72
9
73
5
74
0
42
0.000000001
43
0.0000000001
44
0.0000000001
40
0
40
0
40
0
40
0
40
0.032675022400320913
40
0.061126392071167122
40
0.061126392071167122
40
0.061126392071167122
40
0.061126392071167122
10
-50.262019739108737
20
-78.360672474150093
30
0
10
-50.160695755813869
20
-78.316702330569555
30
0
10
-49.971145173316494
20
-78.23444573092597
30
0
10
-49.833772373642304
20
-78.080680314728085
30
0
10
-49.769832000690158
20
-78.009109974150121
30
3.5527136788005009e-14
0
SPLINE
5
174
100
AcDbEntity
8
0
100
AcDbSpline
70
0
71
3
72
9
73
5
74
0
42
0.000000001
43
0.0000000001
44
0.0000000001
40
0
40
0
40
0
40
0
40
0.02664424649462719
40
0.052556858791127814
40
0.052556858791127814
40
0.052556858791127814
40
0.052556858791127814
10
-49.769832000690158
20
-78.009109974150121
30
3.5527136788005009e-14
10
-49.721983084613299
20
-77.932594544091685
30
3.5527136788005009e-14
10
-49.627599153505798
20
-77.78166474940852
30
3.5527136788005009e-14
10
-49.612978286316022
20
-77.604346937596191
30
0
10
-49.605769619899448
20
-77.516922235731528
30
0
0
SPLINE
5
175
100
AcDbEntity
8
0
100
AcDbSpline
70
0
71
3
72
9
73
5
74
0
42
0.000000001
43
0.0000000001
44
0.0000000001
40
0
40
0
40
0
40
0
40
0.025496312681096412
40
0.050140550720531252
40
0.050140550720531252
40
0.050140550720531252
40
0.050140550720531252
10
-49.605769619899448
20
-77.516922235731528
30
0
10
-49.611826015946967
20
-77.430593708364924
30
0
10
-49.623736406167005
20
-77.260821711951422
30
3.5527136788005009e-14
10
-49.7164504006426
20
-77.118247773789733
30
0
10
-49.762019619899448
20
-77.048172235731499
30
0
0
SPLINE
5
176
100
AcDbEntity
8
0
100
AcDbSpline
70
0
71
3
72
9
73
5
74
0
42
0.000000001
43
0.0000000001
44
0.0000000001
40
0
40
0
40
0
40
0
40
0.027866268431966369
40
0.062324520008283396
40
0.062324520008283396
40
0.062324520008283396
40
0.062324520008283396
10
-49.762019619899448
20
-77.048172235731499
30
0
10
-49.82786098521332
20
-76.981337885062885
30
0
10
-49.975119004344783
20
-76.831858996791297
30
3.5527136788005009e-14
10
-50.169934218264473
20
-76.752310000079746
30
0
10
-50.277644500690158
20
-76.708328604940803
30
0
0
SPLINE
5
177
100
AcDbEntity
8
0
100
AcDbSpline
70
0
71
3
72
9
73
5
74
0
42
0.000000001
43
0.0000000001
44
0.0000000001
40
0
40
0
40
0
40
0
40
0.038735218577430806
40
0.10569309238370839
40
0.10569309238370839
40
0.10569309238370839
40
0.10569309238370839
10
-50.277644500690158
20
-76.708328604940803
30
0
10
-50.400676785718929
20
-76.66902646833131
30
0
10
-50.736383234405395
20
-76.561786480844503
30
3.5527136788005009e-14
10
-51.079688121363006
20
-76.481712662922348
30
0
10
-51.297175989108737
20
-76.430984914545448
30
0
0
SPLINE
5
178
100
AcDbEntity
8
0
100
AcDbSpline
70
0
71
3
72
9
73
5
74
0
42
0.000000001
43
0.0000000001
44
0.0000000001
40
0
40
0
40
0
40
0
40
0.069608369914606782
40
0.1164130316176014
40
0.1164130316176014
40
0.1164130316176014
40
0.1164130316176014
10
-51.297175989108737
20
-76.430984914545448
30
0
10
-51.523260523574749
20
-76.376408175177076
30
0
10
-51.901364278788797
20
-76.285134041140154
30
0
10
-52.258896546074318
20
-76.132840431232083
30
0
10
-52.402644858318027
20
-76.071609735731528
30
0
0
SPLINE
5
179
100
AcDbEntity
8
0
100
AcDbSpline
70
0
71
3
72
9
73
5
74
0
42
0.000000001
43
0.0000000001
44
0.0000000001
40
0
40
0
40
0
40
0
40
0.043146488710499399
40
0.081831796399974455
40
0.081831796399974455
40
0.081831796399974455
40
0.081831796399974455
10
-52.402644858318027
20
-76.071609735731528
30
0
10
-52.528624579268438
20
-75.998943164482398
30
0
10
-52.767558202454111
20
-75.861123466025845
30
0
10
-52.936201387173298
20
-75.643323116517735
30
0
10
-53.015926063614543
20
-75.540359795336173
30
0
0
SPLINE
5
180
100
AcDbEntity
8
0
100
AcDbSpline
70
0
71
3
72
9
73
5
74
0
42
0.000000001
43
0.0000000001
44
0.0000000001
40
0
40
0
40
0
40
0
40
0.037034497200575014
40
0.074960623917169206
40
0.074960623917169206
40
0.074960623917169206
40
0.074960623917169206
10
-53.015926063614543
20
-75.540359795336173
30
0
10
-53.074029190765977
20
-75.429732000880762
30
0
10
-53.191634315501979
20
-75.205812976138986
30
3.5527136788005009e-14
10
-53.20724606729506
20
-74.953282860933086
30
0
10
-53.215144791262802
20
-74.825515926126855
30
0
0
SPLINE
5
181
100
AcDbEntity
8
0
100
AcDbSpline
70
0
71
3
72
9
73
5
74
0
42
0.000000001
43
0.0000000001
44
0.0000000001
40
0
40
0
40
0
40
0
40
0.042343861109799485
40
0.08545909002048413
40
0.08545909002048413
40
0.08545909002048413
40
0.08545909002048413
10
-53.215144791262802
20
-74.825515926126855
30
0
10
-53.204525643121059
20
-74.682872478333394
30
0
10
-53.183093900403207
20
-74.394987081812559
30
3.5527136788005009e-14
10
-53.0408266983966
20
-74.143699745753239
30
0
10
-52.969051033812221
20
-74.016921997312949
30
0
0
SPLINE
5
182
100
AcDbEntity
8
0
100
AcDbSpline
70
0
71
3
72
9
73
5
74
0
42
0.000000001
43
0.0000000001
44
0.0000000001
40
0
40
0
40
0
40
0
40
0.045004693693685621
40
0.093093329548557466
40
0.093093329548557466
40
0.093093329548557466
40
0.093093329548557466
10
-52.969051033812221
20
-74.016921997312949
30
0
10
-52.875117333620011
20
-73.897276729397504
30
0
10
-52.680813135768396
20
-73.649787513477335
30
3.5527136788005009e-14
10
-52.396939742447053
20
-73.513239246269933
30
0
10
-52.250301048713382
20
-73.442703366522238
30
3.5527136788005009e-14
0
SPLINE
5
183
100
AcDbEntity
8
0
100
AcDbSpline
70
0
71
3
72
9
73
5
74
0
42
0.000000001
43
0.0000000001
44
0.0000000001
40
0
40
0
40
0
40
0
40
0.052007895821854784
40
0.1073993093663565
40
0.1073993093663565
40
0.1073993093663565
40
0.1073993093663565
10
-52.250301048713382
20
-73.442703366522238
30
3.5527136788005009e-14
10
-52.085495825075498
20
-73.385752881410582
30
0
10
-51.745163517471546
20
-73.268146839627633
30
0
10
-51.385181302832059
20
-73.254453324807571
30
0
10
-51.199519739108737
20
-73.247390866522238
30
3.5527136788005009e-14
0
SPLINE
5
184
100
AcDbEntity
8
0
100
AcDbSpline
70
0
71
3
72
9
73
5
74
0
42
0.000000001
43
0.0000000001
44
0.0000000001
40
0
40
0
40
0
40
0
40
0.060086631835147911
40
0.1145912462610392
40
0.1145912462610392
40
0.1145912462610392
40
0.1145912462610392
10
-51.199519739108737
20
-73.247390866522238
30
3.5527136788005009e-14
10
-50.997994660633935
20
-73.254207235028602
30
0
10
-50.613666080549073
20
-73.267206734888532
30
0
10
-50.250949634573573
20
-73.394077123518016
30
0
10
-50.078425810294803
20
-73.454422235731528
30
0
0
SPLINE
5
185
100
AcDbEntity
8
0
100
AcDbSpline
70
0
71
3
72
9
73
5
74
0
42
0.000000001
43
0.0000000001
44
0.0000000001
40
0
40
0
40
0
40
0
40
0.049979400675530625
40
0.097263559923570789
40
0.097263559923570789
40
0.097263559923570789
40
0.097263559923570789
10
-50.078425810294803
20
-73.454422235731528
30
0
10
-49.92639797128389
20
-73.528336350242625
30
0
10
-49.630540705493814
20
-73.672178609428997
30
3.5527136788005009e-14
10
-49.427253107552644
20
-73.930434687000854
30
0
10
-49.328425929504093
20
-74.055984497312934
30
0
0
SPLINE
5
186
100
AcDbEntity
8
0
100
AcDbSpline
70
0
71
3
72
9
73
5
74
0
42
0.000000001
43
0.0000000001
44
0.0000000001
40
0
40
0
40
0
40
0
40
0.047003103067196329
40
0.095423791736136993
40
0.095423791736136993
40
0.095423791736136993
40
0.095423791736136993
10
-49.328425929504093
20
-74.055984497312934
30
0
10
-49.251234923016924
20
-74.194404539475329
30
3.5527136788005009e-14
10
-49.094524875248254
20
-74.47541928985315
30
3.5527136788005009e-14
10
-49.063114333891406
20
-74.795772399024912
30
3.5527136788005009e-14
10
-49.047175750690158
20
-74.958328485731514
30
0
0
LINE
5
187
100
AcDbEntity
8
0
100
AcDbLine
10
-49.047175750690158
20
-74.958328485731514
30
-4.1770448844040267e-30
11
-49.773738489108737
21
-75.013016045336173
31
3.5527136788005009e-14
0
SPLINE
5
188
100
AcDbEntity
8
0
100
AcDbSpline
70
0
71
3
72
9
73
5
74
0
42
0.000000001
43
0.0000000001
44
0.0000000001
40
0
40
0
40
0
40
0
40
0.049368893245336193
40
0.093050819304365123
40
0.093050819304365123
40
0.093050819304365123
40
0.093050819304365123
10
-49.773738489108737
20
-75.013016045336144
30
0
10
-49.801169279455202
20
-74.84637499631225
30
3.5527136788005009e-14
10
-49.852871016077458
20
-74.532288835531659
30
0
10
-50.070167744648458
20
-74.301190649121224
30
0
10
-50.172175869899448
20
-74.192703545336144
30
0
0
SPLINE
5
189
100
AcDbEntity
8
0
100
AcDbSpline
70
0
71
3
72
9
73
5
74
0
42
0.000000001
43
0.0000000001
44
0.0000000001
40
0
40
0
40
0
40
0
40
0.04659931306009861
40
0.10492308922587949
40
0.10492308922587949
40
0.10492308922587949
40
0.10492308922587949
10
-50.172175869899448
20
-74.192703545336144
30
0
10
-50.307790685051316
20
-74.112071183896589
30
3.5527136788005009e-14
10
-50.613141223849567
20
-73.93051922747803
30
3.5527136788005009e-14
10
-50.969936964403729
20
-73.920775896765264
30
0
10
-51.168269619899448
20
-73.915359854940817
30
0
0
SPLINE
5
190
100
AcDbEntity
8
0
100
AcDbSpline
70
0
71
3
72
9
73
5
74
0
42
0.000000001
43
0.0000000001
44
0.0000000001
40
0
40
0
40
0
40
0
40
0.059810470798821139
40
0.10494265817833212
40
0.10494265817833212
40
0.10494265817833212
40
0.10494265817833212
10
-51.168269619899448
20
-73.915359854940817
30
0
10
-51.371495986225511
20
-73.918576561138934
30
3.5527136788005009e-14
10
-51.728074271086641
20
-73.924220551137722
30
0
10
-52.038620791208899
20
-74.095573263148125
30
0
10
-52.172176048713382
20
-74.169266104940846
30
0
0
SPLINE
5
191
100
AcDbEntity
8
0
100
AcDbSpline
70
0
71
3
72
9
73
5
74
0
42
0.000000001
43
0.0000000001
44
0.0000000001
40
0
40
0
40
0
40
0
40
0.036236776493032904
40
0.070061535550398346
40
0.070061535550398346
40
0.070061535550398346
40
0.070061535550398346
10
-52.172176048713382
20
-74.169266104940846
30
0
10
-52.263289916266999
20
-74.254819624643616
30
0
10
-52.439452866963485
20
-74.420231991366478
30
3.5527136788005009e-14
10
-52.469951649963065
20
-74.659310833025089
30
0
10
-52.484676048713382
20
-74.774734854940789
30
3.5527136788005009e-14
0
SPLINE
5
192
100
AcDbEntity
8
0
100
AcDbSpline
70
0
71
3
72
9
73
5
74
0
42
0.000000001
43
0.0000000001
44
0.0000000001
40
0
40
0
40
0
40
0
40
0.028670538882441147
40
0.056816059132746038
40
0.056816059132746038
40
0.056816059132746038
40
0.056816059132746038
10
-52.484676048713382
20
-74.774734854940789
30
3.5527136788005009e-14
10
-52.475746435604194
20
-74.872728758533157
30
0
10
-52.458050729620936
20
-75.06692208862647
30
0
10
-52.326959632487174
20
-75.211116417055734
30
0
10
-52.26201976891106
20
-75.282547354940817
30
0
0
SPLINE
5
193
100
AcDbEntity
8
0
100
AcDbSpline
70
0
71
3
72
9
73
5
74
0
42
0.000000001
43
0.0000000001
44
0.0000000001
40
0
40
0
40
0
40
0
40
0.044330465455925949
40
0.12178516158959382
40
0.12178516158959382
40
0.12178516158959382
40
0.12178516158959382
10
-52.26201976891106
20
-75.282547354940817
30
0
10
-52.132480312203171
20
-75.354971520011006
30
3.5527136788005009e-14
10
-51.776608035538644
20
-75.553936014413608
30
0
10
-51.376109570556814
20
-75.638757563820775
30
0
10
-51.121394739108737
20
-75.692703604940846
30
3.5527136788005009e-14
0
SPLINE
5
194
100
AcDbEntity
8
0
100
AcDbSpline
70
0
71
3
72
9
73
5
74
0
42
0.000000001
43
0.0000000001
44
0.0000000001
40
0
40
0
40
0
40
0
40
0.080411005322007151
40
0.1321715833474118
40
0.1321715833474118
40
0.1321715833474118
40
0.1321715833474118
10
-51.121394739108737
20
-75.692703604940846
30
3.5527136788005009e-14
10
-50.859255153702051
20
-75.750574688483908
30
0
10
-50.428376271856322
20
-75.84569739850707
30
0
10
-50.01410066748651
20
-75.99680747209824
30
0
10
-49.851863489108737
20
-76.055984676126883
30
0
0
SPLINE
5
195
100
AcDbEntity
8
0
100
AcDbSpline
70
0
71
3
72
9
73
5
74
0
42
0.000000001
43
0.0000000001
44
0.0000000001
40
0
40
0
40
0
40
0
40
0.050729519338353755
40
0.095154519494558124
40
0.095154519494558124
40
0.095154519494558124
40
0.095154519494558124
10
-49.851863489108737
20
-76.055984676126883
30
0
10
-49.699208809074179
20
-76.133582608503858
30
0
10
-49.412870934859342
20
-76.279134824756071
30
0
10
-49.208839012574416
20
-76.526455381117216
30
0
10
-49.113582179504093
20
-76.641922474150107
30
3.5527136788005009e-14
0
SPLINE
5
196
100
AcDbEntity
8
0
100
AcDbSpline
70
0
71
3
72
9
73
5
74
0
42
0.000000001
43
0.0000000001
44
0.0000000001
40
0
40
0
40
0
40
0
40
0.041893604825190479
40
0.085660242706281919
40
0.085660242706281919
40
0.085660242706281919
40
0.085660242706281919
10
-49.113582179504093
20
-76.641922474150107
30
3.5527136788005009e-14
10
-49.044092826361094
20
-76.7652794178844
30
0
10
-48.902007300883611
20
-77.017508505924837
30
0
10
-48.884331922028451
20
-77.306676533031023
30
0
10
-48.875300989108737
20
-77.45442199731292
30
0
0
SPLINE
5
197
100
AcDbEntity
8
0
100
AcDbSpline
70
0
71
3
72
9
73
5
74
0
42
0.000000001
43
0.0000000001
44
0.0000000001
40
0
40
0
40
0
40
0
40
0.044912742730866907
40
0.091177718046010423
40
0.091177718046010423
40
0.091177718046010423
40
0.091177718046010423
10
-48.875300989108737
20
-77.45442199731292
30
0
10
-48.886838590574712
20
-77.605623740359391
30
0
10
-48.910261167541208
20
-77.912579607609828
30
3.5527136788005009e-14
10
-49.060689813313907
20
-78.181333586666582
30
-3.5527136788005009e-14
10
-49.137019619899448
20
-78.317703485731514
30
0
0
SPLINE
5
198
100
AcDbEntity
8
0
100
AcDbSpline
70
0
71
3
72
9
73
5
74
0
42
0.000000001
43
0.0000000001
44
0.0000000001
40
0
40
0
40
0
40
0
40
0.048002608529739345
40
0.09919107379526429
40
0.09919107379526429
40
0.09919107379526429
40
0.09919107379526429
10
-49.137019619899448
20
-78.317703485731514
30
0
10
-49.236352045466475
20
-78.445616570966081
30
0
10
-49.441609431605698
20
-78.709932129338668
30
3.5527136788005009e-14
10
-49.737980813584088
20
-78.866045984435033
30
0
10
-49.890925989108737
20
-78.946609974150107
30
3.5527136788005009e-14
0
SPLINE
5
199
100
AcDbEntity
8
0
100
AcDbSpline
70
0
71
3
72
9
73
5
74
0
42
0.000000001
43
0.0000000001
44
0.0000000001
40
0
40
0
40
0
40
0
40
0.05457094877182847
40
0.11303965377591271
40
0.11303965377591271
40
0.11303965377591271
40
0.11303965377591271
10
-49.890925989108737
20
-78.946609974150107
30
3.5527136788005009e-14
10
-50.06219613610515
20
-79.011529947317399
30
0
10
-50.416969482626435
20
-79.146006833923465
30
0
10
-50.796288929338033
20
-79.161336815281686
30
-3.5527136788005009e-14
10
-50.992488369899448
20
-79.169266104940789
30
0
0
SPLINE
5
200
100
AcDbEntity
8
0
100
AcDbSpline
70
0
71
3
72
9
73
5
74
0
42
0.000000001
43
0.0000000001
44
0.0000000001
40
0
40
0
40
0
40
0
40
0.071708430762521591
40
0.13309159453851058
40
0.13309159453851058
40
0.13309159453851058
40
0.13309159453851058
10
-50.992488369899448
20
-79.169266104940789
30
0
10
-51.233084871986691
20
-79.163125108749142
30
-3.5527136788005009e-14
10
-51.679634486344085
20
-79.151727355841786
30
0
10
-52.102257946109788
20
-79.008678867643653
30
3.5527136788005009e-14
10
-52.297176078515704
20
-78.942703485731556
30
0
0
LINE
5
201
100
AcDbEntity
8
0
100
AcDbLine
10
-39.898738071876231
20
-79.071609854940803
30
0
11
-40.633112595039066
21
-79.071609854940803
31
0
0
SPLINE
5
202
100
AcDbEntity
8
0
100
AcDbSpline
70
0
71
3
72
9
73
5
74
0
42
0.000000001
43
0.0000000001
44
0.0000000001
40
0
40
0
40
0
40
0
40
0.025374351017942321
40
0.053281632105501714
40
0.053281632105501714
40
0.053281632105501714
40
0.053281632105501714
10
-40.633112595039066
20
-79.071609854940803
30
0
10
-40.666527128406557
20
-78.993476645502597
30
3.5527136788005009e-14
10
-40.736691715969954
20
-78.829410777667576
30
3.5527136788005009e-14
10
-40.761003872954035
20
-78.652533662480607
30
0
10
-40.773737833457645
20
-78.559890866522238
30
0
0
SPLINE
5
203
100
AcDbEntity
8
0
100
AcDbSpline
70
0
71
3
72
9
73
5
74
0
42
0.000000001
43
0.0000000001
44
0.0000000001
40
0
40
0
40
0
40
0
40
0.047696794495478805
40
0.089099034989304798
40
0.089099034989304798
40
0.089099034989304798
40
0.089099034989304798
10
-40.773737833457645
20
-78.559890866522238
30
0
10
-40.897867029419658
20
-78.66048798969419
30
0
10
-41.129744070449341
20
-78.848406416752738
30
0
10
-41.401408625286976
20
-78.971460505587018
30
3.5527136788005009e-14
10
-41.527644798713382
20
-79.02864086652221
30
0
0
SPLINE
5
204
100
AcDbEntity
8
0
100
AcDbSpline
70
0
71
3
72
9
73
5
74
0
42
0.000000001
43
0.0000000001
44
0.0000000001
40
0
40
0
40
0
40
0
40
0.038688224890869365
40
0.078872911479853508
40
0.078872911479853508
40
0.078872911479853508
40
0.078872911479853508
10
-41.527644798713382
20
-79.02864086652221
30
0
10
-41.6509771038087
20
-79.068513143663907
30
3.5527136788005009e-14
10
-41.902412211256177
20
-79.149799958821887
30
3.5527136788005009e-14
10
-42.166521629035323
20
-79.160107873011015
30
0
10
-42.301081821876224
20
-79.165359616522238
30
3.5527136788005009e-14
0
SPLINE
5
205
100
AcDbEntity
8
0
100
AcDbSpline
70
0
71
3
72
9
73
5
74
0
42
0.000000001
43
0.0000000001
44
0.0000000001
40
0
40
0
40
0
40
0
40
0.061016505138279102
40
0.11212288185559845
40
0.11212288185559845
40
0.11212288185559845
40
0.11212288185559845
10
-42.301081821876224
20
-79.165359616522238
30
3.5527136788005009e-14
10
-42.509079070123491
20
-79.157127492492535
30
0
10
-42.891291241054397
20
-79.142000282766034
30
0
10
-43.207659854699756
20
-78.929972211942669
30
3.5527136788005009e-14
10
-43.351862833457645
20
-78.833328366522252
30
3.5527136788005009e-14
0
SPLINE
5
206
100
AcDbEntity
8
0
100
AcDbSpline
70
0
71
3
72
9
73
5
74
0
42
0.000000001
43
0.0000000001
44
0.0000000001
40
0
40
0
40
0
40
0
40
0.047078539843632437
40
0.095323202875790061
40
0.095323202875790061
40
0.095323202875790061
40
0.095323202875790061
10
-43.351862833457645
20
-78.833328366522252
30
3.5527136788005009e-14
10
-43.458954941819563
20
-78.712663632095499
30
0
10
-43.675791802216786
20
-78.468345329150708
30
0
10
-43.704514334454728
20
-78.142682994685728
30
0
10
-43.719051287131961
20
-77.977859854940817
30
0
0
SPLINE
5
207
100
AcDbEntity
8
0
100
AcDbSpline
70
0
71
3
72
9
73
5
74
0
42
0.000000001
43
0.0000000001
44
0.0000000001
40
0
40
0
40
0
40
0
40
0.02930158283236943
40
0.057592414740320549
40
0.057592414740320549
40
0.057592414740320549
40
0.057592414740320549
10
-43.719051287131961
20
-77.977859854940817
30
0
10
-43.713765292065609
20
-77.879334857875364
30
0
10
-43.703375641038264
20
-77.685683459391385
30
0
10
-43.622205390568141
20
-77.509646314477408
30
0
10
-43.582332537131961
20
-77.423172474150107
30
0
0
SPLINE
5
208
100
AcDbEntity
8
0
100
AcDbSpline
70
0
71
3
72
9
73
5
74
0
42
0.000000001
43
0.0000000001
44
0.0000000001
40
0
40
0
40
0
40
0
40
0.027961342469574307
40
0.05487850213250639
40
0.05487850213250639
40
0.05487850213250639
40
0.05487850213250639
10
-43.582332537131961
20
-77.423172474150107
30
0
10
-43.532769982249619
20
-77.343273715564351
30
3.5527136788005009e-14
10
-43.435495726667511
20
-77.186459921727305
30
0
10
-43.290277928705443
20
-77.072713292624215
30
0
10
-43.219050571876224
20
-77.016922116522224
30
0
0
SPLINE
5
209
100
AcDbEntity
8
0
100
AcDbSpline
70
0
71
3
72
9
73
5
74
0
42
0.000000001
43
0.0000000001
44
0.0000000001
40
0
40
0
40
0
40
0
40
0.027497604628891649
40
0.055948472567389967
40
0.055948472567389967
40
0.055948472567389967
40
0.055948472567389967
10
-43.219050571876224
20
-77.016922116522224
30
0
10
-43.140478002250617
20
-76.969020877971232
30
3.5527136788005009e-14
10
-42.980608976727233
20
-76.871557801925633
30
0
10
-42.802042525968567
20
-76.815142078747755
30
0
10
-42.711238071876224
20
-76.786453604940817
30
3.5527136788005009e-14
0
SPLINE
5
210
100
AcDbEntity
8
0
100
AcDbSpline
70
0
71
3
72
9
73
5
74
0
42
0.000000001
43
0.0000000001
44
0.0000000001
40
0
40
0
40
0
40
0
40
0.026526010041641006
40
0.063414379706590168
40
0.063414379706590168
40
0.063414379706590168
40
0.063414379706590168
10
-42.711238071876224
20
-76.786453604940817
30
3.5527136788005009e-14
10
-42.62484974357065
20
-76.767400162220014
30
3.5527136788005009e-14
10
-42.418325571831716
20
-76.721850068198478
30
0
10
-42.208369982877883
20
-76.696013941003912
30
3.5527136788005009e-14
10
-42.086238071876224
20
-76.680984974150107
30
0
0
SPLINE
5
211
100
AcDbEntity
8
0
100
AcDbSpline
70
0
71
3
72
9
73
5
74
0
42
0.000000001
43
0.0000000001
44
0.0000000001
40
0
40
0
40
0
40
0
40
0.074759307971167227
40
0.12786184188979857
40
0.12786184188979857
40
0.12786184188979857
40
0.12786184188979857
10
-42.086238071876224
20
-76.680984974150107
30
0
10
-41.838384609515046
20
-76.650979405754285
30
0
10
-41.41447752588487
20
-76.599660481781328
30
0
10
-41.003157606619581
20
-76.486001297650461
30
3.5527136788005009e-14
10
-40.832331583457645
20
-76.438797295336173
30
0
0
SPLINE
5
212
100
AcDbEntity
8
0
100
AcDbSpline
70
0
71
3
72
9
73
5
74
0
42
0.000000001
43
0.0000000001
44
0.0000000001
40
0
40
0
40
0
40
0
40
0.011820044676651672
40
0.018363753727890848
40
0.018363753727890848
40
0.018363753727890848
40
0.018363753727890848
10
-40.832331583457645
20
-76.438797295336173
30
0
10
-40.831229711779713
20
-76.399411740002165
30
0
10
-40.829517831606061
20
-76.338221900337814
30
3.5527136788005009e-14
10
-40.828712179686249
20
-76.277014063820758
30
0
10
-40.828425095039066
20
-76.25520336652221
30
0
0
SPLINE
5
213
100
AcDbEntity
8
0
100
AcDbSpline
70
0
71
3
72
9
73
5
74
0
42
0.000000001
43
0.0000000001
44
0.0000000001
40
0
40
0
40
0
40
0
40
0.036958210710602964
40
0.065166189264129329
40
0.065166189264129329
40
0.065166189264129329
40
0.065166189264129329
10
-40.828425095039066
20
-76.25520336652221
30
0
10
-40.831230090249463
20
-76.128148445913737
30
0
10
-40.836175969534523
20
-75.904120148977412
30
0
10
-40.969802299402609
20
-75.726583511795226
30
0
10
-41.027644083457645
20
-75.649734616522238
30
-3.5527136788005009e-14
0
SPLINE
5
214
100
AcDbEntity
8
0
100
AcDbSpline
70
0
71
3
72
9
73
5
74
0
42
0.000000001
43
0.0000000001
44
0.0000000001
40
0
40
0
40
0
40
0
40
0.037965235026279132
40
0.084926693599464143
40
0.084926693599464143
40
0.084926693599464143
40
0.084926693599464143
10
-41.027644083457645
20
-75.649734616522238
30
-3.5527136788005009e-14
10
-41.136196161669325
20
-75.580437442171089
30
0
10
-41.37902276552115
20
-75.425422468884221
30
0
10
-41.668406410384065
20
-75.416427387866008
30
3.5527136788005009e-14
10
-41.828425333457645
20
-75.411453426126911
30
0
0
SPLINE
5
215
100
AcDbEntity
8
0
100
AcDbSpline
70
0
71
3
72
9
73
5
74
0
42
0.000000001
43
0.0000000001
44
0.0000000001
40
0
40
0
40
0
40
0
40
0.043387260469922716
40
0.076406772311127233
40
0.076406772311127233
40
0.076406772311127233
40
0.076406772311127233
10
-41.828425333457645
20
-75.411453426126911
30
0
10
-41.975509550561725
20
-75.413866150693295
30
0
10
-42.234530981394428
20
-75.418115059119387
30
0
10
-42.463745164115672
20
-75.536202629853747
30
0
10
-42.562801048713382
20
-75.587234676126883
30
0
0
SPLINE
5
216
100
AcDbEntity
8
0
100
AcDbSpline
70
0
71
3
72
9
73
5
74
0
42
0.000000001
43
0.0000000001
44
0.0000000001
40
0
40
0
40
0
40
0
40
0.031448686552756143
40
0.071511294309144852
40
0.071511294309144852
40
0.071511294309144852
40
0.071511294309144852
10
-42.562801048713382
20
-75.587234676126883
30
0
10
-42.637535162275157
20
-75.66300407642116
30
0
10
-42.807473362424844
20
-75.835296419218551
30
0
10
-42.873478919200103
20
-76.069377435922959
30
3.5527136788005009e-14
10
-42.910457060294803
20
-76.200516104940817
30
0
0
LINE
5
217
100
AcDbEntity
8
0
100
AcDbLine
10
-42.910457060294817
20
-76.200516104940817
30
6.2613110966605827e-30
11
-43.597957298713382
21
-76.106766045336158
31
0
0
SPLINE
5
218
100
AcDbEntity
8
0
100
AcDbSpline
70
0
71
3
72
9
73
5
74
0
42
0.000000001
43
0.0000000001
44
0.0000000001
40
0
40
0
40
0
40
0
40
0.041729399548784872
40
0.078022999296727735
40
0.078022999296727735
40
0.078022999296727735
40
0.078022999296727735
10
-43.597957298713382
20
-76.106766045336144
30
0
10
-43.564477602041109
20
-75.970465149237285
30
0
10
-43.501879376853054
20
-75.715618330556552
30
3.5527136788005009e-14
10
-43.356833916736868
20
-75.4973563078279
30
0
10
-43.289363787131961
20
-75.395828366522238
30
0
0
SPLINE
5
219
100
AcDbEntity
8
0
100
AcDbSpline
70
0
71
3
72
9
73
5
74
0
42
0.000000001
43
0.0000000001
44
0.0000000001
40
0
40
0
40
0
40
0
40
0.035663928916809376
40
0.075625572782770684
40
0.075625572782770684
40
0.075625572782770684
40
0.075625572782770684
10
-43.289363787131961
20
-75.395828366522238
30
0
10
-43.206291179669961
20
-75.308864829397365
30
0
10
-43.030135222862
20
-75.124458133163031
30
3.5527136788005009e-14
10
-42.793376047785486
20
-75.028542788056242
30
0
10
-42.668269083457645
20
-74.977859735731528
30
0
0
SPLINE
5
220
100
AcDbEntity
8
0
100
AcDbSpline
70
0
71
3
72
9
73
5
74
0
42
0.000000001
43
0.0000000001
44
0.0000000001
40
0
40
0
40
0
40
0
40
0.045238911287214953
40
0.09566848280609605
40
0.09566848280609605
40
0.09566848280609605
40
0.09566848280609605
10
-42.668269083457645
20
-74.977859735731528
30
0
10
-42.52310994376856
20
-74.934599898294152
30
0
10
-42.216136272998156
20
-74.84311663982669
30
0
10
-41.895749005571119
20
-74.834149140065378
30
0
10
-41.726863787131961
20
-74.829422116522252
30
0
0
SPLINE
5
221
100
AcDbEntity
8
0
100
AcDbSpline
70
0
71
3
72
9
73
5
74
0
42
0.000000001
43
0.0000000001
44
0.0000000001
40
0
40
0
40
0
40
0
40
0.048245892884376605
40
0.087563519309285812
40
0.087563519309285812
40
0.087563519309285812
40
0.087563519309285812
10
-41.726863787131961
20
-74.829422116522252
30
0
10
-41.565197003724421
20
-74.832144478769479
30
0
10
-41.271781094840648
20
-74.837085409591893
30
0
10
-40.990073966804502
20
-74.918062221403488
30
0
10
-40.863582298713382
20
-74.954422295336187
30
0
0
SPLINE
5
222
100
AcDbEntity
8
0
100
AcDbSpline
70
0
71
3
72
9
73
5
74
0
42
0.000000001
43
0.0000000001
44
0.0000000001
40
0
40
0
40
0
40
0
40
0.032100546706823441
40
0.05867775895352198
40
0.05867775895352198
40
0.05867775895352198
40
0.05867775895352198
10
-40.863582298713382
20
-74.954422295336187
30
0
10
-40.76333344808566
20
-74.995283122161936
30
3.5527136788005009e-14
10
-40.580084921316754
20
-75.069974116337846
30
0
10
-40.4391399588703
20
-75.208214550955589
30
3.5527136788005009e-14
10
-40.375301048713382
20
-75.270828485731556
30
0
0
SPLINE
5
223
100
AcDbEntity
8
0
100
AcDbSpline
70
0
71
3
72
9
73
5
74
0
42
0.000000001
43
0.0000000001
44
0.0000000001
40
0
40
0
40
0
40
0
40
0.025092123123043274
40
0.05282444966245925
40
0.05282444966245925
40
0.05282444966245925
40
0.05282444966245925
10
-40.375301048713382
20
-75.270828485731556
30
0
10
-40.326671618501706
20
-75.339759026360667
30
0
10
-40.224295949622082
20
-75.484873007183054
30
0
10
-40.179872626458035
20
-75.657016954594852
30
0
10
-40.156550810294803
20
-75.747390866522238
30
0
0
SPLINE
5
224
100
AcDbEntity
8
0
100
AcDbSpline
70
0
71
3
72
9
73
5
74
0
42
0.000000001
43
0.0000000001
44
0.0000000001
40
0
40
0
40
0
40
0
40
0.025332947106464984
40
0.064991101674138976
40
0.064991101674138976
40
0.064991101674138976
40
0.064991101674138976
10
-40.156550810294803
20
-75.747390866522238
30
0
10
-40.146413732913686
20
-75.831290059236395
30
3.5527136788005009e-14
10
-40.120407290631789
20
-76.046531536714284
30
0
10
-40.121020570080113
20
-76.263458078677786
30
0
10
-40.121394798713382
20
-76.395828604940789
30
0
0
LINE
5
225
100
AcDbEntity
8
0
100
AcDbLine
10
-40.121394798713382
20
-76.395828604940789
30
6.5856582208740314e-30
11
-40.121394798713382
21
-77.333328604940831
31
-6.9388939039072284e-17
0
SPLINE
5
226
100
AcDbEntity
8
0
100
AcDbSpline
70
0
71
3
72
9
73
5
74
0
42
0.000000001
43
0.0000000001
44
0.0000000001
40
0
40
0
40
0
40
0
40
0.080085329481848946
40
0.12434345470682504
40
0.12434345470682504
40
0.12434345470682504
40
0.12434345470682504
10
-40.121394798713382
20
-77.333328604940846
30
0
10
-40.122920843691489
20
-77.60047616399612
30
0
10
-40.125290237759557
20
-78.015259378654193
30
0
10
-40.090727781012831
20
-78.428448102747339
30
0
10
-40.078425810294803
20
-78.575516224150093
30
3.5527136788005009e-14
0
SPLINE
5
227
100
AcDbEntity
8
0
100
AcDbSpline
70
0
71
3
72
9
73
5
74
0
42
0.000000001
43
0.0000000001
44
0.0000000001
40
0
40
0
40
0
40
0
40
0.026200518040382367
40
0.052944176436817043
40
0.052944176436817043
40
0.052944176436817043
40
0.052944176436817043
10
-40.078425810294803
20
-78.575516224150093
30
3.5527136788005009e-14
10
-40.058996292769166
20
-78.661039017152291
30
3.5527136788005009e-14
10
-40.019734481137249
20
-78.833857502462351
30
0
10
-39.939345106102259
20
-78.991818909297265
30
0
10
-39.898738071876231
20
-79.071609854940803
30
0
0
SPLINE
5
228
100
AcDbEntity
8
0
100
AcDbSpline
70
0
71
3
72
9
73
5
74
0
42
0.000000001
43
0.0000000001
44
0.0000000001
40
0
40
0
40
0
40
0
40
0.036198004730425282
40
0.070001248506322764
40
0.070001248506322764
40
0.070001248506322764
40
0.070001248506322764
10
-32.836238548713389
20
-78.587235093359382
30
0
10
-32.713732413795043
20
-78.579991231161841
30
0
10
-32.476824814665413
20
-78.565982740870396
30
0
10
-32.274016459351373
20
-78.443335392049477
30
3.5527136788005009e-14
10
-32.176081345039073
20
-78.384109616522238
30
0
0
SPLINE
5
229
100
AcDbEntity
8
0
100
AcDbSpline
70
0
71
3
72
9
73
5
74
0
42
0.000000001
43
0.0000000001
44
0.0000000001
40
0
40
0
40
0
40
0
40
0.036000800102048806
40
0.078845520501460264
40
0.078845520501460264
40
0.078845520501460264
40
0.078845520501460264
10
-32.176081345039073
20
-78.384109616522238
30
0
10
-32.087773634207814
20
-78.300756966770066
30
3.5527136788005009e-14
10
-31.894370504137179
20
-78.118205939119207
30
-3.5527136788005009e-14
10
-31.795963173019125
20
-77.87035492057052
30
0
10
-31.742488548713389
20
-77.735672474150107
30
0
0
LINE
5
230
100
AcDbEntity
8
0
100
AcDbLine
10
-31.742488548713389
20
-77.735672474150107
30
-5.2695435717422997e-30
11
-31.015924618201915
21
-77.825516343359396
31
3.5527136788005009e-14
0
SPLINE
5
231
100
AcDbEntity
8
0
100
AcDbSpline
70
0
71
3
72
9
73
5
74
0
42
0.000000001
43
0.0000000001
44
0.0000000001
40
0
40
0
40
0
40
0
40
0.061627366503234554
40
0.11926017022355233
40
0.11926017022355233
40
0.11926017022355233
40
0.11926017022355233
10
-31.015924618201915
20
-77.825516343359411
30
0
10
-31.08267737564168
20
-78.023748097339876
30
0
10
-31.21185611013685
20
-78.407362619018116
30
0
10
-31.509031884784701
20
-78.68137829231695
30
0
10
-31.652642891364756
20
-78.81379711652221
30
0
0
SPLINE
5
232
100
AcDbEntity
8
0
100
AcDbSpline
70
0
71
3
72
9
73
5
74
0
42
0.000000001
43
0.0000000001
44
0.0000000001
40
0
40
0
40
0
40
0
40
0.059133751670409088
40
0.12553818377405224
40
0.12553818377405224
40
0.12553818377405224
40
0.12553818377405224
10
-31.652642891364756
20
-78.81379711652221
30
0
10
-31.82461377599941
20
-78.91624328911962
30
0
10
-32.189699905480595
20
-79.133731712890935
30
0
10
-32.615116379282554
20
-79.154417632796182
30
0
10
-32.840143845039073
20
-79.165359616522238
30
3.5527136788005009e-14
0
SPLINE
5
233
100
AcDbEntity
8
0
100
AcDbSpline
70
0
71
3
72
9
73
5
74
0
42
0.000000001
43
0.0000000001
44
0.0000000001
40
0
40
0
40
0
40
0
40
0.082826467690753316
40
0.15839344109576062
40
0.15839344109576062
40
0.15839344109576062
40
0.15839344109576062
10
-32.840143845039073
20
-79.165359616522238
30
3.5527136788005009e-14
10
-33.123355363299297
20
-79.146659240315927
30
0
10
-33.664955750058269
20
-79.110897520425112
30
0
10
-34.08504059496974
20
-78.769595885832402
30
0
10
-34.285456345039073
20
-78.606766343359411
30
3.5527136788005009e-14
0
SPLINE
5
234
100
AcDbEntity
8
0
100
AcDbSpline
70
0
71
3
72
9
73
5
74
0
42
0.000000001
43
0.0000000001
44
0.0000000001
40
0
40
0
40
0
40
0
40
0.078365468818613768
40
0.1692821517637772
40
0.1692821517637772
40
0.1692821517637772
40
0.1692821517637772
10
-34.285456345039073
20
-78.606766343359411
30
3.5527136788005009e-14
10
-34.440177902242844
20
-78.389580981030932
30
0
10
-34.774401617388591
20
-77.920425292679838
30
3.5527136788005009e-14
10
-34.801924706392725
20
-77.342782937777784
30
0
10
-34.816706583457652
20
-77.032547474150107
30
0
0
SPLINE
5
235
100
AcDbEntity
8
0
100
AcDbSpline
70
0
71
3
72
9
73
5
74
0
42
0.000000001
43
0.0000000001
44
0.0000000001
40
0
40
0
40
0
40
0
40
0.093940441249198758
40
0.17437151698179593
40
0.17437151698179593
40
0.17437151698179593
40
0.17437151698179593
10
-34.816706583457652
20
-77.032547474150107
30
0
10
-34.802083421730096
20
-76.712093347297937
30
0
10
-34.774940022576367
20
-76.117268887467517
30
0
10
-34.434621020236399
20
-75.631578221098408
30
0
10
-34.27764456029481
20
-75.407547235731514
30
0
0
SPLINE
5
236
100
AcDbEntity
8
0
100
AcDbSpline
70
0
71
3
72
9
73
5
74
0
42
0.000000001
43
0.0000000001
44
0.0000000001
40
0
40
0
40
0
40
0
40
0.075586980065844314
40
0.15484564586006827
40
0.15484564586006827
40
0.15484564586006827
40
0.15484564586006827
10
-34.27764456029481
20
-75.407547235731514
30
0
10
-34.081357078817234
20
-75.23895379630612
30
3.5527136788005009e-14
10
-33.679247326355032
20
-74.893577383690314
30
0
10
-33.150069279223068
20
-74.851142608739949
30
3.5527136788005009e-14
10
-32.879206345039073
20
-74.829422116522252
30
0
0
SPLINE
5
237
100
AcDbEntity
8
0
100
AcDbSpline
70
0
71
3
72
9
73
5
74
0
42
0.000000001
43
0.0000000001
44
0.0000000001
40
0
40
0
40
0
40
0
40
0.076900777342715859
40
0.15070394175310492
40
0.15070394175310492
40
0.15070394175310492
40
0.15070394175310492
10
-32.879206345039073
20
-74.829422116522252
30
0
10
-32.61645165289562
20
-74.851020951178384
30
3.5527136788005009e-14
10
-32.10152619715322
20
-74.893348605493856
30
0
10
-31.711054658198851
20
-75.230646083209265
30
0
10
-31.519831821876231
20
-75.395828366522238
30
0
0
SPLINE
5
238
100
AcDbEntity
8
0
100
AcDbSpline
70
0
71
3
72
9
73
5
74
0
42
0.000000001
43
0.0000000001
44
0.0000000001
40
0
40
0
40
0
40
0
40
0.078807399092511721
40
0.17096618150891996
40
0.17096618150891996
40
0.17096618150891996
40
0.17096618150891996
10
-31.519831821876231
20
-75.395828366522238
30
0
10
-31.36627182070011
20
-75.615487878026585
30
0
10
-31.033136006856438
20
-76.092021152141129
30
0
10
-31.006724897374024
20
-76.675211540920913
30
3.5527136788005009e-14
10
-30.992488071876231
20
-76.989578485731528
30
0
0
SPLINE
5
239
100
AcDbEntity
8
0
100
AcDbSpline
70
0
71
3
72
9
73
5
74
0
42
0.000000001
43
0.0000000001
44
0.0000000001
40
0
40
0
40
0
40
0
40
0.0078131085410322095
40
0.01875454471965568
40
0.01875454471965568
40
0.01875454471965568
40
0.01875454471965568
10
-30.992488071876231
20
-76.989578485731528
30
0
10
-30.992735541648337
20
-77.015621675557412
30
0
10
-30.993329566789981
20
-77.078135611677368
30
0
10
-30.995264515522237
20
-77.140623218946899
30
3.5527136788005009e-14
10
-30.996393368201915
20
-77.177078604940831
30
3.5527136788005009e-14
0
LINE
5
240
100
AcDbEntity
8
0
100
AcDbLine
10
-30.996393368201915
20
-77.177078604940831
30
3.5527136788005003e-14
11
-34.090143845039073
21
-77.177078604940831
31
3.5527136788005009e-14
0
SPLINE
5
241
100
AcDbEntity
8
0
100
AcDbSpline
70
0
71
3
72
9
73
5
74
0
42
0.000000001
43
0.0000000001
44
0.0000000001
40
0
40
0
40
0
40
0
40
0.061460231299450538
40
0.11339698229518075
40
0.11339698229518075
40
0.11339698229518075
40
0.11339698229518075
10
-34.090143845039073
20
-77.177078604940831
30
3.5527136788005009e-14
10
-34.069825442556606
20
-77.385373876052554
30
3.5527136788005009e-14
10
-34.032337045948616
20
-77.769688329009071
30
0
10
-33.806746477857324
20
-78.081254056975055
30
0
10
-33.703424141364756
20
-78.223953724150093
30
0
0
SPLINE
5
242
100
AcDbEntity
8
0
100
AcDbSpline
70
0
71
3
72
9
73
5
74
0
42
0.000000001
43
0.0000000001
44
0.0000000001
40
0
40
0
40
0
40
0
40
0.047625936527057912
40
0.09613967746481536
40
0.09613967746481536
40
0.09613967746481536
40
0.09613967746481536
10
-33.703424141364756
20
-78.223953724150093
30
0
10
-33.579590930149109
20
-78.329908306229555
30
0
10
-33.329616108573873
20
-78.543792590504992
30
0
10
-33.001707096832739
20
-78.572665383549293
30
0
10
-32.836238548713389
20
-78.587235093359382
30
0
0
SPLINE
5
243
100
AcDbEntity
8
0
100
AcDbSpline
70
0
71
3
72
9
73
5
74
0
42
0.000000001
43
0.0000000001
44
0.0000000001
40
0
40
0
40
0
40
0
40
0.067613416480672442
40
0.12614579878062246
40
0.12614579878062246
40
0.12614579878062246
40
0.12614579878062246
10
-28.621393845039073
20
-80.755203843359425
30
0
10
-28.850440937030569
20
-80.745706195074476
30
3.5527136788005009e-14
10
-29.277772225428084
20
-80.727986510257466
30
0
10
-29.6485636843069
20
-80.517112751913729
30
3.5527136788005009e-14
10
-29.820613071876231
20
-80.419266104940817
30
0
0
SPLINE
5
244
100
AcDbEntity
8
0
100
AcDbSpline
70
0
71
3
72
9
73
5
74
0
42
0.000000001
43
0.0000000001
44
0.0000000001
40
0
40
0
40
0
40
0
40
0.053732041786087779
40
0.11331241575573117
40
0.11331241575573117
40
0.11331241575573117
40
0.11331241575573117
10
-29.820613071876231
20
-80.419266104940817
30
0
10
-29.953041626620319
20
-80.289144851108318
30
0
10
-30.232312597056005
20
-80.014739614999428
30
3.5527136788005009e-14
10
-30.251781811054727
20
-79.621911463129592
30
0
10
-30.262018845039073
20
-79.415359974150107
30
3.5527136788005009e-14
0
LINE
5
245
100
AcDbEntity
8
0
100
AcDbLine
10
-30.26201884503908
20
-79.415359974150107
30
3.5527136788005022e-14
11
-29.578425095039073
21
-79.516922116522238
31
3.5509789553245241e-14
0
SPLINE
5
246
100
AcDbEntity
8
0
100
AcDbSpline
70
0
71
3
72
9
73
5
74
0
42
0.000000001
43
0.0000000001
44
0.0000000001
40
0
40
0
40
0
40
0
40
0.028519875882484152
40
0.052989563871634726
40
0.052989563871634726
40
0.052989563871634726
40
0.052989563871634726
10
-29.578425095039073
20
-79.516922116522267
30
0
10
-29.560574013282203
20
-79.612993184209472
30
0
10
-29.527406932161963
20
-79.791491996700927
30
0
10
-29.399300025889342
20
-79.918985420323509
30
3.5527136788005009e-14
10
-29.340142414527598
20
-79.977859735731528
30
3.5527136788005009e-14
0
SPLINE
5
247
100
AcDbEntity
8
0
100
AcDbSpline
70
0
71
3
72
9
73
5
74
0
42
0.000000001
43
0.0000000001
44
0.0000000001
40
0
40
0
40
0
40
0
40
0.034247796319100521
40
0.075068225632629548
40
0.075068225632629548
40
0.075068225632629548
40
0.075068225632629548
10
-29.340142414527598
20
-79.977859735731528
30
3.5527136788005009e-14
10
-29.239267734878748
20
-80.034711155038593
30
0
10
-29.018159108152993
20
-80.159324579281048
30
0
10
-28.763679490259527
20
-80.168294559987032
30
3.5527136788005009e-14
10
-28.625299141364756
20
-80.173172235731514
30
0
0
SPLINE
5
248
100
AcDbEntity
8
0
100
AcDbSpline
70
0
71
3
72
9
73
5
74
0
42
0.000000001
43
0.0000000001
44
0.0000000001
40
0
40
0
40
0
40
0
40
0.043536447866994579
40
0.078847029990760958
40
0.078847029990760958
40
0.078847029990760958
40
0.078847029990760958
10
-28.625299141364756
20
-80.173172235731514
30
0
10
-28.477735816644486
20
-80.169023625547439
30
0
10
-28.210490084394987
20
-80.161510252095269
30
0
10
-27.976280832324964
20
-80.03466546703595
30
0
10
-27.871393368201915
20
-79.977859735731528
30
3.5527136788005009e-14
0
SPLINE
5
249
100
AcDbEntity
8
0
100
AcDbSpline
70
0
71
3
72
9
73
5
74
0
42
0.000000001
43
0.0000000001
44
0.0000000001
40
0
40
0
40
0
40
0
40
0.032327644304965507
40
0.066437506017022113
40
0.066437506017022113
40
0.066437506017022113
40
0.066437506017022113
10
-27.871393368201915
20
-79.977859735731528
30
3.5527136788005009e-14
10
-27.789625752057908
20
-79.904746348113804
30
0
10
-27.621582685315452
20
-79.754488844537306
30
0
10
-27.549186840235084
20
-79.540730825200313
30
3.5527136788005009e-14
10
-27.512017891364756
20
-79.430984735731499
30
0
0
SPLINE
5
250
100
AcDbEntity
8
0
100
AcDbSpline
70
0
71
3
72
9
73
5
74
0
42
0.000000001
43
0.0000000001
44
0.0000000001
40
0
40
0
40
0
40
0
40
0.033540580849299798
40
0.090484297717014384
40
0.090484297717014384
40
0.090484297717014384
40
0.090484297717014384
10
-27.512017891364756
20
-79.430984735731499
30
0
10
-27.496589432199187
20
-79.320126685301645
30
0
10
-27.454967216450296
20
-79.021058732826589
30
0
10
-27.458815383695502
20
-78.718836378445076
30
0
10
-27.461237118201915
20
-78.528641343359382
30
0
0
SPLINE
5
251
100
AcDbEntity
8
0
100
AcDbSpline
70
0
71
3
72
9
73
5
74
0
42
0.000000001
43
0.0000000001
44
0.0000000001
40
0
40
0
40
0
40
0
40
0.065857473818426604
40
0.13038735826525488
40
0.13038735826525488
40
0.13038735826525488
40
0.13038735826525488
10
-27.461237118201915
20
-78.528641343359382
30
0
10
-27.623134274370237
20
-78.687002570185115
30
0
10
-27.943664979232125
20
-79.000532695473197
30
0
10
-28.389184116191263
20
-79.048078838272232
30
0
10
-28.609675571876231
20
-79.071609854940803
30
0
0
SPLINE
5
252
100
AcDbEntity
8
0
100
AcDbSpline
70
0
71
3
72
9
73
5
74
0
42
0.000000001
43
0.0000000001
44
0.0000000001
40
0
40
0
40
0
40
0
40
0.077431751018542383
40
0.15050552226870528
40
0.15050552226870528
40
0.15050552226870528
40
0.15050552226870528
10
-28.609675571876231
20
-79.071609854940803
30
0
10
-28.876293534052561
20
-79.049005512217022
30
0
10
-29.394523783475147
20
-79.005069034448724
30
0
10
-29.757607627246582
20
-78.634393455676815
30
0
10
-29.933892891364756
20
-78.454422235731528
30
0
0
SPLINE
5
253
100
AcDbEntity
8
0
100
AcDbSpline
70
0
71
3
72
9
73
5
74
0
42
0.000000001
43
0.0000000001
44
0.0000000001
40
0
40
0
40
0
40
0
40
0.076435903088037035
40
0.15746355995611974
40
0.15746355995611974
40
0.15746355995611974
40
0.15746355995611974
10
-29.933892891364756
20
-78.454422235731528
30
0
10
-30.070579365797997
20
-78.23446431008027
30
-3.5527136788005009e-14
10
-30.352163516603653
20
-77.781334869407416
30
0
10
-30.385492467497905
20
-77.248262368597537
30
0
10
-30.402642891364756
20
-76.973953724150107
30
0
0
SPLINE
5
254
100
AcDbEntity
8
0
100
AcDbSpline
70
0
71
3
72
9
73
5
74
0
42
0.000000001
43
0.0000000001
44
0.0000000001
40
0
40
0
40
0
40
0
40
0.057283635046113085
40
0.11205135821186255
40
0.11205135821186255
40
0.11205135821186255
40
0.11205135821186255
10
-30.402642891364756
20
-76.973953724150107
30
0
10
-30.394522756961017
20
-76.781904270136224
30
0
10
-30.378639126530288
20
-76.406240223174478
30
0
10
-30.250453073937628
20
-76.052904719238484
30
0
10
-30.187799141364756
20
-75.880203724150107
30
0
0
SPLINE
5
255
100
AcDbEntity
8
0
100
AcDbSpline
70
0
71
3
72
9
73
5
74
0
42
0.000000001
43
0.0000000001
44
0.0000000001
40
0
40
0
40
0
40
0
40
0.051786300684697653
40
0.10057630603233414
40
0.10057630603233414
40
0.10057630603233414
40
0.10057630603233414
10
-30.187799141364756
20
-75.880203724150107
30
0
10
-30.110336055024515
20
-75.723296556695388
30
0
10
-29.959891806739613
20
-75.418560688638749
30
0
10
-29.69513938030833
20
-75.20598251504326
30
3.5527136788005009e-14
10
-29.566706821876231
20
-75.102859914545476
30
0
0
SPLINE
5
256
100
AcDbEntity
8
0
100
AcDbSpline
70
0
71
3
72
9
73
5
74
0
42
0.000000001
43
0.0000000001
44
0.0000000001
40
0
40
0
40
0
40
0
40
0.049026636574097469
40
0.10104034981531275
40
0.10104034981531275
40
0.10104034981531275
40
0.10104034981531275
10
-29.566706821876231
20
-75.102859914545476
30
0
10
-29.421560430797754
20
-75.023126653514183
30
0
10
-29.122424223343767
20
-74.858802172997571
30
0
10
-28.781347773134311
20
-74.83940679719241
30
3.5527136788005009e-14
10
-28.605767891364756
20
-74.829422414545448
30
0
0
SPLINE
5
257
100
AcDbEntity
8
0
100
AcDbSpline
70
0
71
3
72
9
73
5
74
0
42
0.000000001
43
0.0000000001
44
0.0000000001
40
0
40
0
40
0
40
0
40
0.068617070376101943
40
0.13868847326852859
40
0.13868847326852859
40
0.13868847326852859
40
0.13868847326852859
10
-28.605767891364756
20
-74.829422414545448
30
0
10
-28.370904665166584
20
-74.855183474792014
30
0
10
-27.896200308221438
20
-74.907251598595536
30
0
10
-27.563117966967269
20
-75.250000670277416
30
3.5527136788005009e-14
10
-27.394830391364756
20
-75.423172295336173
30
3.5527136788005009e-14
0
LINE
5
258
100
AcDbEntity
8
0
100
AcDbLine
10
-27.394830391364756
20
-75.423172295336173
30
3.5527136788005009e-14
11
-27.394830391364756
21
-74.923172474150078
31
3.5596525727044082e-14
0
LINE
5
259
100
AcDbEntity
8
0
100
AcDbLine
10
-27.394830391364756
20
-74.923172474150078
30
3.5596525727044082e-14
11
-26.746393845039073
21
-74.923172474150078
31
0
0
LINE
5
260
100
AcDbEntity
8
0
100
AcDbLine
10
-26.746393845039073
20
-74.923172474150078
30
0
11
-26.746393845039073
21
-78.509110093359396
31
-2.7755575615628914e-16
0
SPLINE
5
261
100
AcDbEntity
8
0
100
AcDbSpline
70
0
71
3
72
9
73
5
74
0
42
0.000000001
43
0.0000000001
44
0.0000000001
40
0
40
0
40
0
40
0
40
0.082864654664876622
40
0.13927393482422729
40
0.13927393482422729
40
0.13927393482422729
40
0.13927393482422729
10
-26.746393845039073
20
-78.509110093359396
30
0
10
-26.746168495468353
20
-78.787612667324098
30
0
10
-26.74578974144405
20
-79.25570306716466
30
0
10
-26.8880093092713
20
-79.700179772029131
30
0
10
-26.945611641364756
20
-79.880203485731514
30
0
0
SPLINE
5
262
100
AcDbEntity
8
0
100
AcDbSpline
70
0
71
3
72
9
73
5
74
0
42
0.000000001
43
0.0000000001
44
0.0000000001
40
0
40
0
40
0
40
0
40
0.044321748273690495
40
0.090649953419258938
40
0.090649953419258938
40
0.090649953419258938
40
0.090649953419258938
10
-26.945611641364756
20
-79.880203485731514
30
0
10
-27.02200726908956
20
-80.009279027736255
30
0
10
-27.178256974131084
20
-80.273273394520686
30
0
10
-27.437911014462838
20
-80.437101629189868
30
3.5527136788005009e-14
10
-27.570611641364756
20
-80.520828843359425
30
0
0
SPLINE
5
263
100
AcDbEntity
8
0
100
AcDbSpline
70
0
71
3
72
9
73
5
74
0
42
0.000000001
43
0.0000000001
44
0.0000000001
40
0
40
0
40
0
40
0
40
0.050703337761860388
40
0.10852044405091223
40
0.10852044405091223
40
0.10852044405091223
40
0.10852044405091223
10
-27.570611641364756
20
-80.520828843359425
30
0
10
-27.726895516892064
20
-80.5891094536656
30
0
10
-28.061390173829178
20
-80.735250565426355
30
0
10
-28.426742717170303
20
-80.748268303015635
30
3.5527136788005009e-14
10
-28.621393845039073
20
-80.755203843359425
30
0
0
LWPOLYLINE
5
264
100
AcDbEntity
8
0
100
AcDbPolyline
90
4
70
1
43
0.0
10
-16.531550095039073
20
-74.153641045336158
10
-16.531550095039073
20
-73.345047116522252
10
-17.234675095039073
20
-73.345047116522267
10
-17.234675095039073
20
-74.153641045336173
0
LWPOLYLINE
5
265
100
AcDbEntity
8
0
100
AcDbPolyline
90
4
70
1
43
0.0
10
-14.773737595039073
20
-79.071609854940789
10
-14.773737595039073
20
-73.345047116522252
10
-15.476862595039073
20
-73.345047116522267
10
-15.476862595039073
20
-79.071609854940803
0
LWPOLYLINE
5
266
100
AcDbEntity
8
0
100
AcDbPolyline
90
4
70
1
43
0.0
10
-16.531550095039073
20
-79.071609854940803
10
-16.531550095039073
20
-74.923172176126883
10
-17.234675095039073
20
-74.923172176126883
10
-17.234675095039073
20
-79.071609854940803
0
LINE
5
267
100
AcDbEntity
8
0
100
AcDbLine
10
-19.008113548713389
20
-77.891922474150093
30
0
11
-19.008113548713389
21
-76.825516104940817
31
6.9388939039072284e-17
0
LINE
5
268
100
AcDbEntity
8
0
100
AcDbLine
10
-19.008113548713389
20
-76.825516104940817
30
6.9388939039072284e-17
11
-20.691708729224864
21
-76.825516104940803
31
0
0
LINE
5
269
100
AcDbEntity
8
0
100
AcDbLine
10
-20.691708729224864
20
-76.825516104940803
30
0
11
-20.691708729224864
21
-76.153640926126869
31
6.9388939039072284e-17
0
LINE
5
270
100
AcDbEntity
8
0
100
AcDbLine
10
-20.691708729224864
20
-76.153640926126869
30
6.9388939039072284e-17
11
-18.265926048713389
21
-76.149734735731499
31
2.7105054312137611e-19
0
LINE
5
271
100
AcDbEntity
8
0
100
AcDbLine
10
-18.265926048713389
20
-76.149734735731499
30
2.7105054312137611e-19
11
-18.265926048713389
21
-78.274735093359382
31
-1.3877787807814457e-16
0
SPLINE
5
272
100
AcDbEntity
8
0
100
AcDbSpline
70
0
71
3
72
9
73
5
74
0
42
0.000000001
43
0.0000000001
44
0.0000000001
40
0
40
0
40
0
40
0
40
0.06888484802503024
40
0.13379090923060122
40
0.13379090923060122
40
0.13379090923060122
40
0.13379090923060122
10
-18.265926048713389
20
-78.274735093359368
30
0
10
-18.45046865760818
20
-78.412849616108474
30
0
10
-18.808894699672617
20
-78.681101170787628
30
0
10
-19.219212221797818
20
-78.859879257502399
30
3.5527136788005009e-14
10
-19.418269798713389
20
-78.946609974150107
30
3.5527136788005009e-14
0
SPLINE
5
273
100
AcDbEntity
8
0
100
AcDbSpline
70
0
71
3
72
9
73
5
74
0
42
0.000000001
43
0.0000000001
44
0.0000000001
40
0
40
0
40
0
40
0
40
0.062430924338999688
40
0.12440037372082988
40
0.12440037372082988
40
0.12440037372082988
40
0.12440037372082988
10
-19.418269798713389
20
-78.946609974150107
30
3.5527136788005009e-14
10
-19.617098533795815
20
-79.011551014656632
30
0
10
-20.013286307924925
20
-79.140953066514228
30
0
10
-20.429623767408721
20
-79.159851794338309
30
3.5527136788005009e-14
10
-20.637020275550547
20
-79.169266104940789
30
0
0
SPLINE
5
274
100
AcDbEntity
8
0
100
AcDbSpline
70
0
71
3
72
9
73
5
74
0
42
0.000000001
43
0.0000000001
44
0.0000000001
40
0
40
0
40
0
40
0
40
0.081065806752199779
40
0.15883502444981479
40
0.15883502444981479
40
0.15883502444981479
40
0.15883502444981479
10
-20.637020275550547
20
-79.169266104940789
30
0
10
-20.909424029437677
20
-79.155574723097274
30
0
10
-21.443154077189369
20
-79.128748727563547
30
0
10
-21.932554527580791
20
-78.9146961861086
30
0
10
-22.172176048713389
20
-78.809891224150107
30
0
0
SPLINE
5
275
100
AcDbEntity
8
0
100
AcDbSpline
70
0
71
3
72
9
73
5
74
0
42
0.000000001
43
0.0000000001
44
0.0000000001
40
0
40
0
40
0
40
0
40
0.074886735125928985
40
0.14931326265103417
40
0.14931326265103417
40
0.14931326265103417
40
0.14931326265103417
10
-22.172176048713389
20
-78.809891224150107
30
0
10
-22.387164653830606
20
-78.675804085271267
30
0
10
-22.815820676941613
20
-78.4084538242154
30
3.5527136788005009e-14
10
-23.079704656150803
20
-77.977719480417818
30
0
10
-23.211239979224864
20
-77.763016104940817
30
0
0
SPLINE
5
276
100
AcDbEntity
8
0
100
AcDbSpline
70
0
71
3
72
9
73
5
74
0
42
0.000000001
43
0.0000000001
44
0.0000000001
40
0
40
0
40
0
40
0
40
0.077017389112805201
40
0.15786758158947928
40
0.15786758158947928
40
0.15786758158947928
40
0.15786758158947928
10
-23.211239979224864
20
-77.763016104940817
30
0
10
-23.313762182004535
20
-77.525218159017697
30
3.5527136788005009e-14
10
-23.523908648906268
20
-77.037788150518651
30
0
10
-23.549629712011718
20
-76.50733719483128
30
0
10
-23.562802479224864
20
-76.235672414545476
30
3.5527136788005009e-14
0
SPLINE
5
277
100
AcDbEntity
8
0
100
AcDbSpline
70
0
71
3
72
9
73
5
74
0
42
0.000000001
43
0.0000000001
44
0.0000000001
40
0
40
0
40
0
40
0
40
0.081228045381164779
40
0.16072347891022282
40
0.16072347891022282
40
0.16072347891022282
40
0.16072347891022282
10
-23.562802479224864
20
-76.235672414545476
30
3.5527136788005009e-14
10
-23.548951001123267
20
-75.963074517802156
30
3.5527136788005009e-14
10
-23.521543499956742
20
-75.423693296666002
30
0
10
-23.316541370613887
20
-74.924155148561667
30
0
10
-23.215145275550547
20
-74.677078604940817
30
0
0
SPLINE
5
278
100
AcDbEntity
8
0
100
AcDbSpline
70
0
71
3
72
9
73
5
74
0
42
0.000000001
43
0.0000000001
44
0.0000000001
40
0
40
0
40
0
40
0
40
0.076381214309791071
40
0.14951074325910446
40
0.14951074325910446
40
0.14951074325910446
40
0.14951074325910446
10
-23.215145275550547
20
-74.677078604940817
30
0
10
-23.087734452881875
20
-74.451862155280907
30
3.5527136788005009e-14
10
-22.8383369149063
20
-74.011017124377688
30
0
10
-22.41459584754875
20
-73.734301873825729
30
0
10
-22.207333252387706
20
-73.598953366522252
30
0
0
SPLINE
5
279
100
AcDbEntity
8
0
100
AcDbSpline
70
0
71
3
72
9
73
5
74
0
42
0.000000001
43
0.0000000001
44
0.0000000001
40
0
40
0
40
0
40
0
40
0.075368212978230223
40
0.1564126047377403
40
0.1564126047377403
40
0.1564126047377403
40
0.1564126047377403
10
-22.207333252387706
20
-73.598953366522252
30
0
10
-21.975449432645359
20
-73.496451535366631
30
3.5527136788005009e-14
10
-21.494218011476928
20
-73.28372818996813
30
0
10
-20.968178638305069
20
-73.25979284380773
30
3.5527136788005009e-14
10
-20.695614025550547
20
-73.247390866522238
30
3.5527136788005009e-14
0
SPLINE
5
280
100
AcDbEntity
8
0
100
AcDbSpline
70
0
71
3
72
9
73
5
74
0
42
0.000000001
43
0.0000000001
44
0.0000000001
40
0
40
0
40
0
40
0
40
0.059299862899281873
40
0.11447223054372296
40
0.11447223054372296
40
0.11447223054372296
40
0.11447223054372296
10
-20.695614025550547
20
-73.247390866522238
30
3.5527136788005009e-14
10
-20.496871517484859
20
-73.254565243526656
30
3.5527136788005009e-14
10
-20.113219733318427
20
-73.268414633698995
30
0
10
-19.749717542464115
20
-73.391292231232427
30
3.5527136788005009e-14
10
-19.574519798713389
20
-73.450515747312963
30
0
0
SPLINE
5
281
100
AcDbEntity
8
0
100
AcDbSpline
70
0
71
3
72
9
73
5
74
0
42
0.000000001
43
0.0000000001
44
0.0000000001
40
0
40
0
40
0
40
0
40
0.050895944382830467
40
0.097529571784057315
40
0.097529571784057315
40
0.097529571784057315
40
0.097529571784057315
10
-19.574519798713389
20
-73.450515747312963
30
0
10
-19.417969948898332
20
-73.520765028499511
30
0
10
-19.117980627539527
20
-73.655380514965984
30
0
10
-18.89302257979223
20
-73.894686024258959
30
3.5527136788005009e-14
10
-18.785459206062022
20
-74.009109616522238
30
0
0
SPLINE
5
282
100
AcDbEntity
8
0
100
AcDbSpline
70
0
71
3
72
9
73
5
74
0
42
0.000000001
43
0.0000000001
44
0.0000000001
40
0
40
0
40
0
40
0
40
0.048418812839045706
40
0.10385668273122159
40
0.10385668273122159
40
0.10385668273122159
40
0.10385668273122159
10
-18.785459206062022
20
-74.009109616522238
30
0
10
-18.694691358862542
20
-74.143781466402658
30
0
10
-18.499997458784264
20
-74.432647937217524
30
0
10
-18.403417590082714
20
-74.767740287434037
30
0
10
-18.351864025550547
20
-74.946609914545462
30
0
0
LINE
5
283
100
AcDbEntity
8
0
100
AcDbLine
10
-18.351864025550547
20
-74.946609914545462
30
0
11
-19.035457775550547
21
-75.134109735731528
31
-1.7347234759768071e-17
0
SPLINE
5
284
100
AcDbEntity
8
0
100
AcDbSpline
70
0
71
3
72
9
73
5
74
0
42
0.000000001
43
0.0000000001
44
0.0000000001
40
0
40
0
40
0
40
0
40
0.041650607521083162
40
0.0761518796840496
40
0.0761518796840496
40
0.0761518796840496
40
0.0761518796840496
10
-19.035457775550547
20
-75.134109735731499
30
0
10
-19.077465992170811
20
-75.000963252772863
30
0
10
-19.154271706377703
20
-74.757524908074345
30
3.5527136788005009e-14
10
-19.292944042882127
20
-74.543552058119516
30
0
10
-19.355770752387706
20
-74.446609795336173
30
0
0
SPLINE
5
285
100
AcDbEntity
8
0
100
AcDbSpline
70
0
71
3
72
9
73
5
74
0
42
0.000000001
43
0.0000000001
44
0.0000000001
40
0
40
0
40
0
40
0
40
0.032321584063870611
40
0.068251821298177862
40
0.068251821298177862
40
0.068251821298177862
40
0.068251821298177862
10
-19.355770752387706
20
-74.446609795336173
30
0
10
-19.429261974563413
20
-74.366353972213744
30
3.5527136788005009e-14
10
-19.584449596339887
20
-74.196881891666436
30
0
10
-19.792906479283619
20
-74.099459042267938
30
0
10
-19.902645752387706
20
-74.04817211652221
30
0
0
SPLINE
5
286
100
AcDbEntity
8
0
100
AcDbSpline
70
0
71
3
72
9
73
5
74
0
42
0.000000001
43
0.0000000001
44
0.0000000001
40
0
40
0
40
0
40
0
40
0.039201924901809522
40
0.080783107261823195
40
0.080783107261823195
40
0.080783107261823195
40
0.080783107261823195
10
-19.902645752387706
20
-74.04817211652221
30
0
10
-20.026402136889615
20
-74.003749289710385
30
3.5527136788005009e-14
10
-20.281425973310746
20
-73.91220750975431
30
0
10
-20.552288624343312
20
-73.901394397297494
30
0
10
-20.691708729224864
20
-73.895828604940817
30
0
0
SPLINE
5
287
100
AcDbEntity
8
0
100
AcDbSpline
70
0
71
3
72
9
73
5
74
0
42
0.000000001
43
0.0000000001
44
0.0000000001
40
0
40
0
40
0
40
0
40
0.048602796613389246
40
0.091716024101332866
40
0.091716024101332866
40
0.091716024101332866
40
0.091716024101332866
10
-20.691708729224864
20
-73.895828604940817
30
0
10
-20.854721154370889
20
-73.900751534246169
30
3.5527136788005009e-14
10
-21.16233414282576
20
-73.91004135981747
30
0
10
-21.453348319382556
20
-74.009317475038642
30
3.5527136788005009e-14
10
-21.590146229224864
20
-74.055984497312934
30
0
0
SPLINE
5
288
100
AcDbEntity
8
0
100
AcDbSpline
70
0
71
3
72
9
73
5
74
0
42
0.000000001
43
0.0000000001
44
0.0000000001
40
0
40
0
40
0
40
0
40
0.038792741032534932
40
0.074457031363249382
40
0.074457031363249382
40
0.074457031363249382
40
0.074457031363249382
10
-21.590146229224864
20
-74.055984497312934
30
0
10
-21.708619171078606
20
-74.110351501674003
30
0
10
-21.936010773541067
20
-74.214701069172776
30
3.5527136788005009e-14
10
-22.116821258193347
20
-74.387349900838501
30
0
10
-22.203427956062022
20
-74.470047235731514
30
0
0
SPLINE
5
289
100
AcDbEntity
8
0
100
AcDbSpline
70
0
71
3
72
9
73
5
74
0
42
0.000000001
43
0.0000000001
44
0.0000000001
40
0
40
0
40
0
40
0
40
0.033945777126345666
40
0.067316835217123533
40
0.067316835217123533
40
0.067316835217123533
40
0.067316835217123533
10
-22.203427956062022
20
-74.470047235731514
30
0
10
-22.275832060465625
20
-74.557654325533036
30
0
10
-22.419414431463927
20
-74.731385273157812
30
0
10
-22.515278323026408
20
-74.93534451712577
30
0
10
-22.562801048713389
20
-75.036453485731542
30
0
0
SPLINE
5
290
100
AcDbEntity
8
0
100
AcDbSpline
70
0
71
3
72
9
73
5
74
0
42
0.000000001
43
0.0000000001
44
0.0000000001
40
0
40
0
40
0
40
0
40
0.057750588479450936
40
0.1178631515994488
40
0.1178631515994488
40
0.1178631515994488
40
0.1178631515994488
10
-22.562801048713389
20
-75.036453485731542
30
0
10
-22.626597254574726
20
-75.219276108269099
30
0
10
-22.756798904131571
20
-75.592398721272801
30
3.5527136788005009e-14
10
-22.773191783229979
20
-75.987359396857926
30
0
10
-22.781552479224864
20
-76.188797235731499
30
3.5527136788005009e-14
0
SPLINE
5
291
100
AcDbEntity
8
0
100
AcDbSpline
70
0
71
3
72
9
73
5
74
0
42
0.000000001
43
0.0000000001
44
0.0000000001
40
0
40
0
40
0
40
0
40
0.070616269175945739
40
0.13167021449567662
40
0.13167021449567662
40
0.13167021449567662
40
0.13167021449567662
10
-22.781552479224864
20
-76.188797235731499
30
3.5527136788005009e-14
10
-22.774187753400955
20
-76.426251862721671
30
0
10
-22.760455577512126
20
-76.869006797719521
30
0
10
-22.596061070918218
20
-77.27964103872867
30
0
10
-22.519833252387706
20
-77.470047354940831
30
0
0
SPLINE
5
292
100
AcDbEntity
8
0
100
AcDbSpline
70
0
71
3
72
9
73
5
74
0
42
0.000000001
43
0.0000000001
44
0.0000000001
40
0
40
0
40
0
40
0
40
0.055457171470800766
40
0.11000508538759325
40
0.11000508538759325
40
0.11000508538759325
40
0.11000508538759325
10
-22.519833252387706
20
-77.470047354940831
30
0
10
-22.422067385535293
20
-77.6305029607351
30
3.5527136788005009e-14
10
-22.228138588846583
20
-77.948783394954702
30
3.5527136788005009e-14
10
-21.908700431101412
20
-78.14057127424401
30
0
10
-21.750301525550547
20
-78.235672593359396
30
3.5527136788005009e-14
0
SPLINE
5
293
100
AcDbEntity
8
0
100
AcDbSpline
70
0
71
3
72
9
73
5
74
0
42
0.000000001
43
0.0000000001
44
0.0000000001
40
0
40
0
40
0
40
0
40
0.055233008153338703
40
0.11066451003784947
40
0.11066451003784947
40
0.11066451003784947
40
0.11066451003784947
10
-21.750301525550547
20
-78.235672593359396
30
3.5527136788005009e-14
10
-21.57955999533494
20
-78.308589272416285
30
0
10
-21.237463332195269
20
-78.454684674988229
30
0
10
-20.866036818200978
20
-78.475330784304603
30
3.5527136788005009e-14
10
-20.679990456062022
20
-78.485672354940846
30
3.5527136788005009e-14
0
SPLINE
5
294
100
AcDbEntity
8
0
100
AcDbSpline
70
0
71
3
72
9
73
5
74
0
42
0.000000001
43
0.0000000001
44
0.0000000001
40
0
40
0
40
0
40
0
40
0.048858240186689952
40
0.098358787836652861
40
0.098358787836652861
40
0.098358787836652861
40
0.098358787836652861
10
-20.679990456062022
20
-78.485672354940846
30
3.5527136788005009e-14
10
-20.516400924966081
20
-78.477657839696064
30
3.5527136788005009e-14
10
-20.187071257751693
20
-78.461523447594345
30
3.5527136788005009e-14
10
-19.875735802391791
20
-78.352859174637942
30
0
10
-19.719051525550547
20
-78.298172235731514
30
3.5527136788005009e-14
0
SPLINE
5
295
100
AcDbEntity
8
0
100
AcDbSpline
70
0
71
3
72
9
73
5
74
0
42
0.000000001
43
0.0000000001
44
0.0000000001
40
0
40
0
40
0
40
0
40
0.045688869828952809
40
0.082154385992453602
40
0.082154385992453602
40
0.082154385992453602
40
0.082154385992453602
10
-19.719051525550547
20
-78.298172235731514
30
3.5527136788005009e-14
10
-19.57818789491736
20
-78.238402923711234
30
0
10
-19.324897211066755
20
-78.130930115812959
30
0
10
-19.10549754203933
20
-77.965396965882519
30
0
10
-19.008113548713389
20
-77.891922474150093
30
0
0
LWPOLYLINE
5
296
100
AcDbEntity
8
0
100
AcDbPolyline
90
4
70
1
43
0.0
10
-12.996393845039073
20
-79.071609854940789
10
-12.996393845039073
20
-73.345047116522252
10
-13.699518845039073
20
-73.345047116522267
10
-13.699518845039073
20
-79.071609854940803
0
SPLINE
5
297
100
AcDbEntity
8
0
100
AcDbSpline
70
0
71
3
72
9
73
5
74
0
42
0.000000001
43
0.0000000001
44
0.0000000001
40
0
40
0
40
0
40
0
40
0.067297111395209414
40
0.13502029629447188
40
0.13502029629447188
40
0.13502029629447188
40
0.13502029629447188
10
-37.230769798713389
20
-79.165359616522238
30
3.5527136788005009e-14
10
-37.462595933404941
20
-79.139485136073077
30
0
10
-37.927715947413162
20
-79.087572357882792
30
0
10
-38.230995336211826
20
-78.730951563684982
30
0
10
-38.383113548713389
20
-78.552078485731514
30
0
0
LINE
5
298
100
AcDbEntity
8
0
100
AcDbLine
10
-38.383113548713389
20
-78.552078485731514
30
0
11
-38.383113548713389
21
-79.071609854940789
31
-6.9388939039072284e-17
0
LINE
5
299
100
AcDbEntity
8
0
100
AcDbLine
10
-38.383113548713389
20
-79.071609854940789
30
-6.9388939039072284e-17
11
-39.035457775550547
21
-79.071609854940803
31
0
0
LINE
5
300
100
AcDbEntity
8
0
100
AcDbLine
10
-39.035457775550547
20
-79.071609854940803
30
0
11
-39.035457775550547
21
-73.345047712568672
31
5.5511151231257827e-16
0
LINE
5
301
100
AcDbEntity
8
0
100
AcDbLine
10
-39.035457775550547
20
-73.345047712568672
30
5.5511151231257827e-16
11
-38.332332775550547
21
-73.345047712568658
31
0
0
LINE
5
302
100
AcDbEntity
8
0
100
AcDbLine
10
-38.332332775550547
20
-73.345047712568658
30
0
11
-38.332332775550547
21
-75.388015985731499
31
-1.3877787807814457e-16
0
SPLINE
5
303
100
AcDbEntity
8
0
100
AcDbSpline
70
0
71
3
72
9
73
5
74
0
42
0.000000001
43
0.0000000001
44
0.0000000001
40
0
40
0
40
0
40
0
40
0.065756998399732369
40
0.1302747486925265
40
0.1302747486925265
40
0.1302747486925265
40
0.1302747486925265
10
-38.332332775550547
20
-75.388015985731528
30
0
10
-38.174756626851917
20
-75.225096951569014
30
0
10
-37.86257398969957
20
-74.902329234835193
30
0
10
-37.416519479233237
20
-74.85356988031387
30
0
10
-37.195613787131968
20
-74.829422116522252
30
0
0
SPLINE
5
304
100
AcDbEntity
8
0
100
AcDbSpline
70
0
71
3
72
9
73
5
74
0
42
0.000000001
43
0.0000000001
44
0.0000000001
40
0
40
0
40
0
40
0
40
0.037411616647614818
40
0.074376835575724096
40
0.074376835575724096
40
0.074376835575724096
40
0.074376835575724096
10
-37.195613787131968
20
-74.829422116522252
30
0
10
-37.070143689175715
20
-74.835774819715866
30
0
10
-36.820700610218097
20
-74.848404425256405
30
0
10
-36.588407165618214
20
-74.940099666094497
30
0
10
-36.472957537131968
20
-74.985672116522252
30
0
0
SPLINE
5
305
100
AcDbEntity
8
0
100
AcDbSpline
70
0
71
3
72
9
73
5
74
0
42
0.000000001
43
0.0000000001
44
0.0000000001
40
0
40
0
40
0
40
0
40
0.036293702391168164
40
0.071579954270706958
40
0.071579954270706958
40
0.071579954270706958
40
0.071579954270706958
10
-36.472957537131968
20
-74.985672116522252
30
0
10
-36.364111789940992
20
-75.041148140896382
30
0
10
-36.149441665561831
20
-75.150560270996039
30
0
10
-35.989368088191704
20
-75.330541876022778
30
0
10
-35.910457775550547
20
-75.419266104940817
30
0
0
SPLINE
5
306
100
AcDbEntity
8
0
100
AcDbSpline
70
0
71
3
72
9
73
5
74
0
42
0.000000001
43
0.0000000001
44
0.0000000001
40
0
40
0
40
0
40
0
40
0.036514187695946117
40
0.075975663809701541
40
0.075975663809701541
40
0.075975663809701541
40
0.075975663809701541
10
-35.910457775550547
20
-75.419266104940817
30
0
10
-35.839571846627088
20
-75.51897125773975
30
0
10
-35.692078342196027
20
-75.726429389691802
30
0
10
-35.606993382343454
20
-75.966466570330397
30
0
10
-35.562800571876231
20
-76.091140985731514
30
0
0
SPLINE
5
307
100
AcDbEntity
8
0
100
AcDbSpline
70
0
71
3
72
9
73
5
74
0
42
0.000000001
43
0.0000000001
44
0.0000000001
40
0
40
0
40
0
40
0
40
0.041883017051442706
40
0.085549700523822395
40
0.085549700523822395
40
0.085549700523822395
40
0.085549700523822395
10
-35.562800571876231
20
-76.091140985731514
30
0
10
-35.526346735801809
20
-76.22642914481537
30
0
10
-35.451886609032982
20
-76.502766961640432
30
3.5527136788005009e-14
10
-35.442561204365653
20
-76.788861496276752
30
0
10
-35.437801287131968
20
-76.934891224150121
30
0
0
SPLINE
5
308
100
AcDbEntity
8
0
100
AcDbSpline
70
0
71
3
72
9
73
5
74
0
42
0.000000001
43
0.0000000001
44
0.0000000001
40
0
40
0
40
0
40
0
40
0.095446121539468798
40
0.17611899153759986
40
0.17611899153759986
40
0.17611899153759986
40
0.17611899153759986
10
-35.437801287131968
20
-76.934891224150121
30
0
10
-35.451388919283268
20
-77.260240506966852
30
0
10
-35.476461075524639
20
-77.860581166838173
30
0
10
-35.811621722689097
20
-78.356272693718253
30
0
10
-35.965145037131968
20
-78.583328604940817
30
3.5527136788005009e-14
0
SPLINE
5
309
100
AcDbEntity
8
0
100
AcDbSpline
70
0
71
3
72
9
73
5
74
0
42
0.000000001
43
0.0000000001
44
0.0000000001
40
0
40
0
40
0
40
0
40
0.072597741210882735
40
0.14267958314701976
40
0.14267958314701976
40
0.14267958314701976
40
0.14267958314701976
10
-35.965145037131968
20
-78.583328604940817
30
3.5527136788005009e-14
10
-36.147473451865281
20
-78.75307214757656
30
0
10
-36.505811628454524
20
-79.086676712969549
30
0
10
-36.99197461354985
20
-79.139442123218643
30
0
10
-37.230769798713389
20
-79.165359616522238
30
3.5527136788005009e-14
0
LINE
5
310
100
AcDbEntity
8
0
100
AcDbLine
10
-47.226863310294803
20
-76.802078366522238
30
0
11
-47.226863310294803
21
-79.071609854940789
31
0
0
LINE
5
311
100
AcDbEntity
8
0
100
AcDbLine
10
-47.226863310294803
20
-79.071609854940789
30
0
11
-47.929988310294803
21
-79.071609854940803
31
0
0
LINE
5
312
100
AcDbEntity
8
0
100
AcDbLine
10
-47.929988310294803
20
-79.071609854940803
30
0
11
-47.929988310294803
21
-73.345047116522267
31
5.5511151231257827e-16
0
LINE
5
313
100
AcDbEntity
8
0
100
AcDbLine
10
-47.929988310294803
20
-73.345047116522267
30
5.5511151231257827e-16
11
-47.226863310294803
21
-73.345047116522252
31
3.5527136788005009e-14
0
LINE
5
314
100
AcDbEntity
8
0
100
AcDbLine
10
-47.226863310294803
20
-73.345047116522252
30
3.5527136788005009e-14
11
-47.226863310294803
21
-75.399734854940775
31
3.5388358909926865e-14
0
SPLINE
5
315
100
AcDbEntity
8
0
100
AcDbSpline
70
0
71
3
72
9
73
5
74
0
42
0.000000001
43
0.0000000001
44
0.0000000001
40
0
40
0
40
0
40
0
40
0.07020009821768225
40
0.14022175343908844
40
0.14022175343908844
40
0.14022175343908844
40
0.14022175343908844
10
-47.226863310294803
20
-75.399734854940789
30
0
10
-47.052218075449659
20
-75.233393840840932
30
0
10
-46.703371539881715
20
-74.901134638103201
30
3.5527136788005009e-14
10
-46.224037644233498
20
-74.853306200606141
30
0
10
-45.984675691085513
20
-74.829422414545448
30
0
0
SPLINE
5
316
100
AcDbEntity
8
0
100
AcDbSpline
70
0
71
3
72
9
73
5
74
0
42
0.000000001
43
0.0000000001
44
0.0000000001
40
0
40
0
40
0
40
0
40
0.043310332821912871
40
0.082800392742560347
40
0.082800392742560347
40
0.082800392742560347
40
0.082800392742560347
10
-45.984675691085513
20
-74.829422414545448
30
0
10
-45.838963882595735
20
-74.835557855810819
30
0
10
-45.560393061637313
20
-74.84728754970412
30
0
10
-45.305473458595401
20
-74.959498963008457
30
3.5527136788005009e-14
10
-45.183894441085513
20
-75.013016045336144
30
0
0
SPLINE
5
317
100
AcDbEntity
8
0
100
AcDbSpline
70
0
71
3
72
9
73
5
74
0
42
0.000000001
43
0.0000000001
44
0.0000000001
40
0
40
0
40
0
40
0
40
0.03617289890576722
40
0.070626082677824109
40
0.070626082677824109
40
0.070626082677824109
40
0.070626082677824109
10
-45.183894441085513
20
-75.013016045336144
30
0
10
-45.079377018433732
20
-75.07741356769094
30
0
10
-44.875311091820862
20
-75.203147055347642
30
0
10
-44.757157422346182
20
-75.411416888825642
30
3.5527136788005009e-14
10
-44.699519083457645
20
-75.513016164545462
30
0
0
SPLINE
5
318
100
AcDbEntity
8
0
100
AcDbSpline
70
0
71
3
72
9
73
5
74
0
42
0.000000001
43
0.0000000001
44
0.0000000001
40
0
40
0
40
0
40
0
40
0.040805781809327903
40
0.094644765995163582
40
0.094644765995163582
40
0.094644765995163582
40
0.094644765995163582
10
-44.699519083457645
20
-75.513016164545462
30
0
10
-44.65643140248563
20
-75.642832868176654
30
3.5527136788005009e-14
10
-44.556494008762186
20
-75.94392920777986
30
0
10
-44.553044388210111
20
-76.261852042861804
30
3.5527136788005009e-14
10
-44.551082060294803
20
-76.442703485731528
30
0
0
LINE
5
319
100
AcDbEntity
8
0
100
AcDbLine
10
-44.551082060294803
20
-76.442703485731528
30
-1.1304467741914316e-29
11
-44.551082060294803
21
-79.071609854940789
31
-2.7755575615628914e-16
0
LINE
5
320
100
AcDbEntity
8
0
100
AcDbLine
10
-44.551082060294803
20
-79.071609854940789
30
-2.7755575615628914e-16
11
-45.254207060294803
21
-79.071609854940803
31
0
0
LINE
5
321
100
AcDbEntity
8
0
100
AcDbLine
10
-45.254207060294803
20
-79.071609854940803
30
0
11
-45.254207060294803
21
-76.442703485731542
31
2.7755575615628914e-16
0
SPLINE
5
322
100
AcDbEntity
8
0
100
AcDbSpline
70
0
71
3
72
9
73
5
74
0
42
0.000000001
43
0.0000000001
44
0.0000000001
40
0
40
0
40
0
40
0
40
0.045871107811734098
40
0.081412209567569505
40
0.081412209567569505
40
0.081412209567569505
40
0.081412209567569505
10
-45.254207060294803
20
-76.442703485731528
30
0
10
-45.257873475314284
20
-76.285914311434524
30
0
10
-45.264380642072751
20
-76.007644312633118
30
0
10
-45.417729844321855
20
-75.777534628533402
30
0
10
-45.484675571876224
20
-75.677078545336173
30
0
0
SPLINE
5
323
100
AcDbEntity
8
0
100
AcDbSpline
70
0
71
3
72
9
73
5
74
0
42
0.000000001
43
0.0000000001
44
0.0000000001
40
0
40
0
40
0
40
0
40
0.03290843417903113
40
0.070412088169325981
40
0.070412088169325981
40
0.070412088169325981
40
0.070412088169325981
10
-45.484675571876224
20
-75.677078545336173
30
0
10
-45.572224805087131
20
-75.606521323025348
30
3.5527136788005009e-14
10
-45.759548343316453
20
-75.455554512167652
30
0
10
-46.000740451752229
20
-75.4420722395582
30
0
10
-46.129206821876224
20
-75.434891164545462
30
0
0
SPLINE
5
324
100
AcDbEntity
8
0
100
AcDbSpline
70
0
71
3
72
9
73
5
74
0
42
0.000000001
43
0.0000000001
44
0.0000000001
40
0
40
0
40
0
40
0
40
0.030646770720969517
40
0.061793649759245825
40
0.061793649759245825
40
0.061793649759245825
40
0.061793649759245825
10
-46.129206821876224
20
-75.434891164545462
30
0
10
-46.232276409466735
20
-75.441945656278065
30
0
10
-46.440097522313678
20
-75.456169758233983
30
0
10
-46.625566036423919
20
-75.55110284550652
30
3.5527136788005009e-14
10
-46.719050810294803
20
-75.598953545336158
30
0
0
SPLINE
5
325
100
AcDbEntity
8
0
100
AcDbSpline
70
0
71
3
72
9
73
5
74
0
42
0.000000001
43
0.0000000001
44
0.0000000001
40
0
40
0
40
0
40
0
40
0.030137037779565654
40
0.05945278186491635
40
0.05945278186491635
40
0.05945278186491635
40
0.05945278186491635
10
-46.719050810294803
20
-75.598953545336158
30
0
10
-46.803406339589998
20
-75.656567207435685
30
3.5527136788005009e-14
10
-46.969818543701422
20
-75.770224445758032
30
0
10
-47.063488045070173
20
-75.948531490136077
30
0
10
-47.109675810294803
20
-76.036453426126911
30
0
0
SPLINE
5
326
100
AcDbEntity
8
0
100
AcDbSpline
70
0
71
3
72
9
73
5
74
0
42
0.000000001
43
0.0000000001
44
0.0000000001
40
0
40
0
40
0
40
0
40
0.034157934453297165
40
0.077811019054749325
40
0.077811019054749325
40
0.077811019054749325
40
0.077811019054749325
10
-47.109675810294803
20
-76.036453426126911
30
0
10
-47.143725894011069
20
-76.145694407799851
30
0
10
-47.221291231472634
20
-76.394542947460195
30
0
10
-47.224860756281672
20
-76.655613875442953
30
0
10
-47.226863310294803
20
-76.802078366522238
30
0
0
SPLINE
5
327
100
AcDbEntity
8
0
100
AcDbSpline
70
0
71
3
72
9
73
5
74
0
42
0.000000001
43
0.0000000001
44
0.0000000001
40
0
40
0
40
0
40
0
40
0.050472807922710465
40
0.10126523871235599
40
0.10126523871235599
40
0.10126523871235599
40
0.10126523871235599
10
-21.708848748752136
20
-66.844128858333576
30
0
10
-21.882718235471867
20
-66.824722909791149
30
3.5527136788005009e-14
10
-22.231558250563349
20
-66.785788123072095
30
0
10
-22.459017814602284
20
-66.518322483227323
30
0
10
-22.573106561252136
20
-66.384167563205679
30
3.5527136788005009e-14
0
LINE
5
328
100
AcDbEntity
8
0
100
AcDbLine
10
-22.573106561252132
20
-66.384167563205679
30
3.5527136788005003e-14
11
-22.573106561252136
21
-66.773816239124244
31
3.5492442318485473e-14
0
LINE
5
329
100
AcDbEntity
8
0
100
AcDbLine
10
-22.573106561252136
20
-66.773816239124244
30
3.5492442318485473e-14
11
-23.062365327426452
21
-66.77381623912423
31
3.5527136788005009e-14
0
LINE
5
330
100
AcDbEntity
8
0
100
AcDbLine
10
-23.062365327426452
20
-66.77381623912423
30
3.5527136788005009e-14
11
-23.062365327426452
21
-62.478894185310317
31
3.5527136788005009e-14
0
LINE
5
331
100
AcDbEntity
8
0
100
AcDbLine
10
-23.062365327426452
20
-62.478894185310317
30
3.5527136788005009e-14
11
-22.535021577426452
21
-62.478894185310324
31
3.5527136788005009e-14
0
LINE
5
332
100
AcDbEntity
8
0
100
AcDbLine
10
-22.535021577426452
20
-62.478894185310324
30
3.5527136788005009e-14
11
-22.535021577426452
21
-64.011120688205693
31
3.524958103184872e-14
0
SPLINE
5
333
100
AcDbEntity
8
0
100
AcDbSpline
70
0
71
3
72
9
73
5
74
0
42
0.000000001
43
0.0000000001
44
0.0000000001
40
0
40
0
40
0
40
0
40
0.049317752783187424
40
0.097706068728133422
40
0.097706068728133422
40
0.097706068728133422
40
0.097706068728133422
10
-22.535021577426452
20
-64.011120688205693
30
0
10
-22.416839342121197
20
-63.888931549777681
30
3.5527136788005009e-14
10
-22.182702120663759
20
-63.646856035721662
30
0
10
-21.848161283405826
20
-63.610286344738398
30
3.5527136788005009e-14
10
-21.682482038089294
20
-63.592175435310317
30
0
0
SPLINE
5
334
100
AcDbEntity
8
0
100
AcDbSpline
70
0
71
3
72
9
73
5
74
0
42
0.000000001
43
0.0000000001
44
0.0000000001
40
0
40
0
40
0
40
0
40
0.028058831043411395
40
0.055782632179220644
40
0.055782632179220644
40
0.055782632179220644
40
0.055782632179220644
10
-21.682482038089294
20
-63.592175435310317
30
0
10
-21.588379046942844
20
-63.596939880146657
30
0
10
-21.401296679399987
20
-63.606411881080362
30
0
10
-21.227076672343856
20
-63.67518359797203
30
0
10
-21.140489850589294
20
-63.709362935310338
30
0
0
SPLINE
5
335
100
AcDbEntity
8
0
100
AcDbSpline
70
0
71
3
72
9
73
5
74
0
42
0.000000001
43
0.0000000001
44
0.0000000001
40
0
40
0
40
0
40
0
40
0.027220184655043403
40
0.053685084711165523
40
0.053685084711165523
40
0.053685084711165523
40
0.053685084711165523
10
-21.140489850589294
20
-63.709362935310338
30
0
10
-21.058856007275736
20
-63.750970038938092
30
3.5527136788005009e-14
10
-20.897853433298938
20
-63.833029764511295
30
3.5527136788005009e-14
10
-20.777796755554224
20
-63.968015034056535
30
0
10
-20.718612943240661
20
-64.034558128601034
30
0
0
SPLINE
5
336
100
AcDbEntity
8
0
100
AcDbSpline
70
0
71
3
72
9
73
5
74
0
42
0.000000001
43
0.0000000001
44
0.0000000001
40
0
40
0
40
0
40
0
40
0.027385562461510377
40
0.056981685219366002
40
0.056981685219366002
40
0.056981685219366002
40
0.056981685219366002
10
-20.718612943240661
20
-64.034558128601034
30
0
10
-20.665449258197736
20
-64.109337163251737
30
0
10
-20.554830519931016
20
-64.264931389934631
30
0
10
-20.491016203997919
20
-64.444958748189947
30
-3.5527136788005009e-14
10
-20.457871232577819
20
-64.538464438205693
30
3.5527136788005009e-14
0
SPLINE
5
337
100
AcDbEntity
8
0
100
AcDbSpline
70
0
71
3
72
9
73
5
74
0
42
0.000000001
43
0.0000000001
44
0.0000000001
40
0
40
0
40
0
40
0
40
0.031412270640798497
40
0.064162264116647438
40
0.064162264116647438
40
0.064162264116647438
40
0.064162264116647438
10
-20.457871232577819
20
-64.538464438205693
30
3.5527136788005009e-14
10
-20.430530932400476
20
-64.639930609438267
30
0
10
-20.374686018129026
20
-64.847183989876058
30
3.5527136788005009e-14
10
-20.367692384992683
20
-65.061754874290017
30
0
10
-20.364122663089294
20
-65.171277117019613
30
0
0
SPLINE
5
338
100
AcDbEntity
8
0
100
AcDbSpline
70
0
71
3
72
9
73
5
74
0
42
0.000000001
43
0.0000000001
44
0.0000000001
40
0
40
0
40
0
40
0
40
0.071584605912930144
40
0.13208925841152841
40
0.13208925841152841
40
0.13208925841152841
40
0.13208925841152841
10
-20.364122663089294
20
-65.171277117019613
30
0
10
-20.374313378517307
20
-65.415289131369306
30
3.5527136788005009e-14
10
-20.393117477895974
20
-65.865544680141269
30
3.5527136788005009e-14
10
-20.644487990259094
20
-66.23731336777746
30
0
10
-20.759630475589294
20
-66.407605301624272
30
3.5527136788005009e-14
0
SPLINE
5
339
100
AcDbEntity
8
0
100
AcDbSpline
70
0
71
3
72
9
73
5
74
0
42
0.000000001
43
0.0000000001
44
0.0000000001
40
0
40
0
40
0
40
0
40
0.054448139217477383
40
0.10700970177459021
40
0.10700970177459021
40
0.10700970177459021
40
0.10700970177459021
10
-20.759630475589294
20
-66.407605301624272
30
3.5527136788005009e-14
10
-20.896376077605726
20
-66.534912936706334
30
0
10
-21.165129175527348
20
-66.785117117410167
30
3.5527136788005009e-14
10
-21.529751650779815
20
-66.824690839056458
30
3.5527136788005009e-14
10
-21.708848748752136
20
-66.844128858333576
30
0
0
SPLINE
5
340
100
AcDbEntity
8
0
100
AcDbSpline
70
0
71
3
72
9
73
5
74
0
42
0.000000001
43
0.0000000001
44
0.0000000001
40
0
40
0
40
0
40
0
40
0.027148269577508329
40
0.05250077524799325
40
0.05250077524799325
40
0.05250077524799325
40
0.05250077524799325
10
-30.090685163089294
20
-66.410534869914969
30
0
10
-29.998806444759744
20
-66.405101680521909
30
0
10
-29.821126466766255
20
-66.39459468837677
30
0
10
-29.669020216695209
20
-66.302610375202164
30
0
10
-29.595568452426452
20
-66.258191358333562
30
3.5527136788005009e-14
0
SPLINE
5
341
100
AcDbEntity
8
0
100
AcDbSpline
70
0
71
3
72
9
73
5
74
0
42
0.000000001
43
0.0000000001
44
0.0000000001
40
0
40
0
40
0
40
0
40
0.02700054073827747
40
0.059134199301172773
40
0.059134199301172773
40
0.059134199301172773
40
0.059134199301172773
10
-29.595568452426452
20
-66.258191358333562
30
3.5527136788005009e-14
10
-29.529338272522349
20
-66.195676639192214
30
0
10
-29.384286782770189
20
-66.058762423406861
30
0
10
-29.310479635171077
20
-65.872874808027262
30
0
10
-29.270372663089294
20
-65.771863054519628
30
0
0
LINE
5
342
100
AcDbEntity
8
0
100
AcDbLine
10
-29.270372663089297
20
-65.771863054519628
30
0
11
-28.725450311252136
21
-65.839245807414997
31
-4.3368086899420177e-18
0
SPLINE
5
343
100
AcDbEntity
8
0
100
AcDbSpline
70
0
71
3
72
9
73
5
74
0
42
0.000000001
43
0.0000000001
44
0.0000000001
40
0
40
0
40
0
40
0
40
0.046220518478335484
40
0.089445334701190815
40
0.089445334701190815
40
0.089445334701190815
40
0.089445334701190815
10
-28.725450311252136
20
-65.839245807414997
30
0
10
-28.775514269651698
20
-65.987919926998842
30
3.5527136788005009e-14
10
-28.872397378343223
20
-66.275632112525614
30
3.5527136788005009e-14
10
-29.095281270654393
20
-66.481143016106884
30
3.5527136788005009e-14
10
-29.20299080426361
20
-66.580456983333562
30
3.5527136788005009e-14
0
SPLINE
5
344
100
AcDbEntity
8
0
100
AcDbSpline
70
0
71
3
72
9
73
5
74
0
42
0.000000001
43
0.0000000001
44
0.0000000001
40
0
40
0
40
0
40
0
40
0.04435010034745928
40
0.094153542585700495
40
0.094153542585700495
40
0.094153542585700495
40
0.094153542585700495
10
-29.20299080426361
20
-66.580456983333562
30
3.5527136788005009e-14
10
-29.33196816315759
20
-66.657291604404037
30
0
10
-29.605782092733296
20
-66.820408524328442
30
3.5527136788005009e-14
10
-29.924844257681912
20
-66.835922557778275
30
0
10
-30.093615327426452
20
-66.844128858333576
30
0
0
SPLINE
5
345
100
AcDbEntity
8
0
100
AcDbSpline
70
0
71
3
72
9
73
5
74
0
42
0.000000001
43
0.0000000001
44
0.0000000001
40
0
40
0
40
0
40
0
40
0.062119613250314065
40
0.11879498382205037
40
0.11879498382205037
40
0.11879498382205037
40
0.11879498382205037
10
-30.093615327426452
20
-66.844128858333576
30
0
10
-30.30602310874221
20
-66.830103458021
30
0
10
-30.712222980647507
20
-66.803281861490589
30
3.5527136788005009e-14
10
-31.027286335430308
20
-66.547305792087144
30
0
10
-31.177598510333556
20
-66.425183307414954
30
0
0
SPLINE
5
346
100
AcDbEntity
8
0
100
AcDbSpline
70
0
71
3
72
9
73
5
74
0
42
0.000000001
43
0.0000000001
44
0.0000000001
40
0
40
0
40
0
40
0
40
0.058774093424963668
40
0.12696163076290365
40
0.12696163076290365
40
0.12696163076290365
40
0.12696163076290365
10
-31.177598510333556
20
-66.425183307414954
30
0
10
-31.293639941608195
20
-66.262294464622499
30
0
10
-31.544308365264943
20
-65.910427988954581
30
0
10
-31.564950288248287
20
-65.477196049829146
30
0
10
-31.576036487170715
20
-65.244519304519628
30
0
0
SPLINE
5
347
100
AcDbEntity
8
0
100
AcDbSpline
70
0
71
3
72
9
73
5
74
0
42
0.000000001
43
0.0000000001
44
0.0000000001
40
0
40
0
40
0
40
0
40
0.070455320465252366
40
0.13077865512701634
40
0.13077865512701634
40
0.13077865512701634
40
0.13077865512701634
10
-31.576036487170715
20
-65.244519304519628
30
0
10
-31.565068995215565
20
-65.004178756899734
30
0
10
-31.544711216150198
20
-64.558060374602036
30
0
10
-31.289471822761485
20
-64.193792405736374
30
3.5527136788005009e-14
10
-31.171739373752136
20
-64.025769125705693
30
0
0
SPLINE
5
348
100
AcDbEntity
8
0
100
AcDbSpline
70
0
71
3
72
9
73
5
74
0
42
0.000000001
43
0.0000000001
44
0.0000000001
40
0
40
0
40
0
40
0
40
0.056690242365113094
40
0.11613406861232231
40
0.11613406861232231
40
0.11613406861232231
40
0.11613406861232231
10
-31.171739373752136
20
-64.025769125705693
30
0
10
-31.024523650004635
20
-63.899324178771543
30
3.5527136788005009e-14
10
-30.722941574338186
20
-63.640292544220422
30
0
10
-30.326058741776855
20
-63.608466011432448
30
3.5527136788005009e-14
10
-30.122912202426452
20
-63.592175435310317
30
0
0
SPLINE
5
349
100
AcDbEntity
8
0
100
AcDbSpline
70
0
71
3
72
9
73
5
74
0
42
0.000000001
43
0.0000000001
44
0.0000000001
40
0
40
0
40
0
40
0
40
0.057675700177957305
40
0.11302812222670891
40
0.11302812222670891
40
0.11302812222670891
40
0.11302812222670891
10
-30.122912202426452
20
-63.592175435310317
30
0
10
-29.925845778991405
20
-63.608374517983002
30
0
10
-29.53965111250151
20
-63.640120155931712
30
0
10
-29.24679685860276
20
-63.89309341113762
30
0
10
-29.103379521914977
20
-64.016980122810324
30
0
0
SPLINE
5
350
100
AcDbEntity
8
0
100
AcDbSpline
70
0
71
3
72
9
73
5
74
0
42
0.000000001
43
0.0000000001
44
0.0000000001
40
0
40
0
40
0
40
0
40
0.059105542875040093
40
0.12822462231339471
40
0.12822462231339471
40
0.12822462231339471
40
0.12822462231339471
10
-29.103379521914977
20
-64.016980122810324
30
0
10
-28.988209521038243
20
-64.181724730886671
30
0
10
-28.73835766035111
20
-64.539124631491887
30
0
10
-28.718549328441089
20
-64.976517378416588
30
0
10
-28.707871709414977
20
-65.212292563205693
30
3.5527136788005009e-14
0
SPLINE
5
351
100
AcDbEntity
8
0
100
AcDbSpline
70
0
71
3
72
9
73
5
74
0
42
0.000000001
43
0.0000000001
44
0.0000000001
40
0
40
0
40
0
40
0
40
0.0058598321499859713
40
0.014065925776222125
40
0.014065925776222125
40
0.014065925776222125
40
0.014065925776222125
10
-28.707871709414977
20
-65.212292563205693
30
3.5527136788005009e-14
10
-28.708057522527998
20
-65.231824955843251
30
0
10
-28.708503547838834
20
-65.278710460076127
30
0
10
-28.709955058863578
20
-65.32557621299263
30
0
10
-28.710801873752136
20
-65.352917801624272
30
0
0
LINE
5
352
100
AcDbEntity
8
0
100
AcDbLine
10
-28.710801873752136
20
-65.352917801624272
30
0
11
-31.031114135333556
21
-65.352917801624258
31
0
0
SPLINE
5
353
100
AcDbEntity
8
0
100
AcDbSpline
70
0
71
3
72
9
73
5
74
0
42
0.000000001
43
0.0000000001
44
0.0000000001
40
0
40
0
40
0
40
0
40
0.046095171201651103
40
0.085047693485301445
40
0.085047693485301445
40
0.085047693485301445
40
0.085047693485301445
10
-31.031114135333556
20
-65.352917801624272
30
0
10
-31.015875708479278
20
-65.509139316772163
30
0
10
-30.987760115836597
20
-65.797375138220502
30
0
10
-30.818567237899014
20
-66.031049342003257
30
0
10
-30.741075549670715
20
-66.138073992019613
30
0
0
SPLINE
5
354
100
AcDbEntity
8
0
100
AcDbSpline
70
0
71
3
72
9
73
5
74
0
42
0.000000001
43
0.0000000001
44
0.0000000001
40
0
40
0
40
0
40
0
40
0.035719354620632984
40
0.072104891737967525
40
0.072104891737967525
40
0.072104891737967525
40
0.072104891737967525
10
-30.741075549670715
20
-66.138073992019613
30
0
10
-30.648201044791254
20
-66.217539938775047
30
3.5527136788005009e-14
10
-30.460719882528519
20
-66.377953908974391
30
3.5527136788005009e-14
10
-30.214787465577334
20
-66.399607862103068
30
0
10
-30.090685163089294
20
-66.410534869914969
30
0
0
SPLINE
5
355
100
AcDbEntity
8
0
100
AcDbSpline
70
0
71
3
72
9
73
5
74
0
42
0.000000001
43
0.0000000001
44
0.0000000001
40
0
40
0
40
0
40
0
40
0.050710125205369196
40
0.094609278673483732
40
0.094609278673483732
40
0.094609278673483732
40
0.094609278673483732
10
-36.940294776507876
20
-68.036511432414983
30
3.5527136788005009e-14
10
-37.112080303706904
20
-68.029388119604562
30
0
10
-37.432578522731696
20
-68.016098239446904
30
3.5527136788005009e-14
10
-37.710671938394718
20
-67.857943141330225
30
-3.5527136788005009e-14
10
-37.839708600589297
20
-67.784558426624258
30
0
0
SPLINE
5
356
100
AcDbEntity
8
0
100
AcDbSpline
70
0
71
3
72
9
73
5
74
0
42
0.000000001
43
0.0000000001
44
0.0000000001
40
0
40
0
40
0
40
0
40
0.040299034237386351
40
0.084984344072264725
40
0.084984344072264725
40
0.084984344072264725
40
0.084984344072264725
10
-37.839708600589297
20
-67.784558426624258
30
0
10
-37.939030261150435
20
-67.686967671428889
30
3.5527136788005009e-14
10
-38.148484069031674
20
-67.481164071547539
30
0
10
-38.163085828370498
20
-67.186542747665484
30
0
10
-38.170763526507876
20
-67.031628977542852
30
0
0
LINE
5
357
100
AcDbEntity
8
0
100
AcDbLine
10
-38.170763526507876
20
-67.031628977542852
30
-7.592673032646483e-30
11
-37.658068214007876
21
-67.107800733333548
31
-4.3368086899420177e-18
0
SPLINE
5
358
100
AcDbEntity
8
0
100
AcDbSpline
70
0
71
3
72
9
73
5
74
0
42
0.000000001
43
0.0000000001
44
0.0000000001
40
0
40
0
40
0
40
0
40
0.021389847111860413
40
0.039742036507222051
40
0.039742036507222051
40
0.039742036507222051
40
0.039742036507222051
10
-37.658068214007876
20
-67.107800733333534
30
0
10
-37.644680051569146
20
-67.179853827078034
30
0
10
-37.619805033172703
20
-67.313727466617138
30
3.5527136788005009e-14
10
-37.523725752309723
20
-67.409347713952855
30
0
10
-37.479357991763614
20
-67.453503500705693
30
0
0
SPLINE
5
359
100
AcDbEntity
8
0
100
AcDbSpline
70
0
71
3
72
9
73
5
74
0
42
0.000000001
43
0.0000000001
44
0.0000000001
40
0
40
0
40
0
40
0
40
0.025685901116673435
40
0.056301223101820209
40
0.056301223101820209
40
0.056301223101820209
40
0.056301223101820209
10
-37.479357991763614
20
-67.453503500705693
30
0
10
-37.4037017806764
20
-67.496142067149222
30
0
10
-37.237870058436599
20
-67.589602033033785
30
3.5527136788005009e-14
10
-37.047010188376341
20
-67.596329585823483
30
0
10
-36.943224940845035
20
-67.599987875705693
30
0
0
SPLINE
5
360
100
AcDbEntity
8
0
100
AcDbSpline
70
0
71
3
72
9
73
5
74
0
42
0.000000001
43
0.0000000001
44
0.0000000001
40
0
40
0
40
0
40
0
40
0.032652276671661221
40
0.059135321732093141
40
0.059135321732093141
40
0.059135321732093141
40
0.059135321732093141
10
-36.943224940845035
20
-67.599987875705693
30
0
10
-36.832552681186613
20
-67.59687632032788
30
0
10
-36.632118275110457
20
-67.591241098312366
30
0
10
-36.456461013960165
20
-67.496107805606414
30
0
10
-36.377795014926456
20
-67.453503500705693
30
0
0
SPLINE
5
361
100
AcDbEntity
8
0
100
AcDbSpline
70
0
71
3
72
9
73
5
74
0
42
0.000000001
43
0.0000000001
44
0.0000000001
40
0
40
0
40
0
40
0
40
0.024245692176049414
40
0.049828088460091867
40
0.049828088460091867
40
0.049828088460091867
40
0.049828088460091867
10
-36.377795014926456
20
-67.453503500705693
30
0
10
-36.316469541415863
20
-67.398668426223509
30
0
10
-36.190437622147293
20
-67.285975131176528
30
0
10
-36.136140738091214
20
-67.125656794382849
30
0
10
-36.108264003345035
20
-67.043347250705679
30
0
0
SPLINE
5
362
100
AcDbEntity
8
0
100
AcDbSpline
70
0
71
3
72
9
73
5
74
0
42
0.000000001
43
0.0000000001
44
0.0000000001
40
0
40
0
40
0
40
0
40
0.025155486571952514
40
0.067863257075363267
40
0.067863257075363267
40
0.067863257075363267
40
0.067863257075363267
10
-36.108264003345035
20
-67.043347250705679
30
0
10
-36.096691907400547
20
-66.96020362757406
30
0
10
-36.065473265704441
20
-66.735902775566259
30
0
10
-36.06836070275336
20
-66.509235822987975
30
3.5527136788005009e-14
10
-36.070177827426456
20
-66.366589557414997
30
0
0
SPLINE
5
363
100
AcDbEntity
8
0
100
AcDbSpline
70
0
71
3
72
9
73
5
74
0
42
0.000000001
43
0.0000000001
44
0.0000000001
40
0
40
0
40
0
40
0
40
0.049393114577886317
40
0.097790414505567164
40
0.097790414505567164
40
0.097790414505567164
40
0.097790414505567164
10
-36.070177827426456
20
-66.366589557414997
30
0
10
-36.19160068415362
20
-66.485360526059182
30
0
10
-36.431998391228277
20
-66.720507921687158
30
0
10
-36.766137309929519
20
-66.756167843445837
30
0
10
-36.931505475589297
20
-66.773816239124244
30
0
0
SPLINE
5
364
100
AcDbEntity
8
0
100
AcDbSpline
70
0
71
3
72
9
73
5
74
0
42
0.000000001
43
0.0000000001
44
0.0000000001
40
0
40
0
40
0
40
0
40
0.058073868703861831
40
0.11287928938305647
40
0.11287928938305647
40
0.11287928938305647
40
0.11287928938305647
10
-36.931505475589297
20
-66.773816239124244
30
0
10
-37.131469113135282
20
-66.756863013905161
30
0
10
-37.520142260153321
20
-66.723910705781094
30
3.5527136788005009e-14
10
-37.792455892028769
20
-66.445904100846249
30
0
10
-37.924670253345035
20
-66.310925673728917
30
0
0
SPLINE
5
365
100
AcDbEntity
8
0
100
AcDbSpline
70
0
71
3
72
9
73
5
74
0
42
0.000000001
43
0.0000000001
44
0.0000000001
40
0
40
0
40
0
40
0
40
0.0573269537789367
40
0.11809769642999873
40
0.11809769642999873
40
0.11809769642999873
40
0.11809769642999873
10
-37.924670253345035
20
-66.310925673728917
30
0
10
-38.027185109547389
20
-66.145957128341252
30
0
10
-38.238373173264122
20
-65.806109920188163
30
0
10
-38.263369920696654
20
-65.40630546843748
30
0
10
-38.276232753345035
20
-65.200573992019628
30
3.5527136788005009e-14
0
SPLINE
5
366
100
AcDbEntity
8
0
100
AcDbSpline
70
0
71
3
72
9
73
5
74
0
42
0.000000001
43
0.0000000001
44
0.0000000001
40
0
40
0
40
0
40
0
40
0.042962726284584814
40
0.084038518658896916
40
0.084038518658896916
40
0.084038518658896916
40
0.084038518658896916
10
-38.276232753345035
20
-65.200573992019628
30
3.5527136788005009e-14
10
-38.270142652542226
20
-65.056536901509205
30
3.5527136788005009e-14
10
-38.258229929719171
20
-64.774788866287906
30
3.5527136788005009e-14
10
-38.162090390274685
20
-64.509787238335946
30
3.5527136788005009e-14
10
-38.115099940845035
20
-64.380261492019585
30
3.5527136788005009e-14
0
SPLINE
5
367
100
AcDbEntity
8
0
100
AcDbSpline
70
0
71
3
72
9
73
5
74
0
42
0.000000001
43
0.0000000001
44
0.0000000001
40
0
40
0
40
0
40
0
40
0.038839792405315092
40
0.075432319978252227
40
0.075432319978252227
40
0.075432319978252227
40
0.075432319978252227
10
-38.115099940845035
20
-64.380261492019585
30
3.5527136788005009e-14
10
-38.057002211081702
20
-64.262581079246161
30
0
10
-37.944168277888032
20
-64.034029225547641
30
0
10
-37.745603500430803
20
-63.874595710099229
30
3.5527136788005009e-14
10
-37.649278913089297
20
-63.797253858333569
30
0
0
SPLINE
5
368
100
AcDbEntity
8
0
100
AcDbSpline
70
0
71
3
72
9
73
5
74
0
42
0.000000001
43
0.0000000001
44
0.0000000001
40
0
40
0
40
0
40
0
40
0.036769869151711709
40
0.075780094994988279
40
0.075780094994988279
40
0.075780094994988279
40
0.075780094994988279
10
-37.649278913089297
20
-63.797253858333569
30
0
10
-37.540419524141562
20
-63.73745391325123
30
3.5527136788005009e-14
10
-37.316068036745222
20
-63.614210463557718
30
0
10
-37.06026123181266
20
-63.599663993634294
30
3.5527136788005009e-14
10
-36.928576503345035
20
-63.592175733333526
30
0
0
SPLINE
5
369
100
AcDbEntity
8
0
100
AcDbSpline
70
0
71
3
72
9
73
5
74
0
42
0.000000001
43
0.0000000001
44
0.0000000001
40
0
40
0
40
0
40
0
40
0.051462688007323593
40
0.10401631801227793
40
0.10401631801227793
40
0.10401631801227793
40
0.10401631801227793
10
-36.928576503345035
20
-63.592175733333526
30
0
10
-36.752429570270849
20
-63.611496710990274
30
3.5527136788005009e-14
10
-36.396401618428818
20
-63.650548245880188
30
0
10
-36.146589483357737
20
-63.907609377322629
30
0
10
-36.020373378345035
20
-64.037487994914983
30
0
0
LINE
5
370
100
AcDbEntity
8
0
100
AcDbLine
10
-36.020373378345035
20
-64.037487994914983
30
1.2809207152768712e-30
11
-36.020373378345035
21
-63.662488054519642
31
0
0
LINE
5
371
100
AcDbEntity
8
0
100
AcDbLine
10
-36.020373378345035
20
-63.662488054519642
30
0
11
-35.534044776507876
21
-63.662488054519656
31
0
0
LINE
5
372
100
AcDbEntity
8
0
100
AcDbLine
10
-35.534044776507876
20
-63.662488054519656
30
0
11
-35.534044776507876
21
-66.351941119914997
31
-2.7755575615628914e-16
0
SPLINE
5
373
100
AcDbEntity
8
0
100
AcDbSpline
70
0
71
3
72
9
73
5
74
0
42
0.000000001
43
0.0000000001
44
0.0000000001
40
0
40
0
40
0
40
0
40
0.062148516620197373
40
0.10445546095192068
40
0.10445546095192068
40
0.10445546095192068
40
0.10445546095192068
10
-35.534044776507876
20
-66.351941119914983
30
0
10
-35.533876607682643
20
-66.560818068824204
30
3.5527136788005009e-14
10
-35.533593959711098
20
-66.911885788008533
30
0
10
-35.640257889246996
20
-67.245243511933211
30
0
10
-35.683459315845035
20
-67.380261313205679
30
0
0
SPLINE
5
374
100
AcDbEntity
8
0
100
AcDbSpline
70
0
71
3
72
9
73
5
74
0
42
0.000000001
43
0.0000000001
44
0.0000000001
40
0
40
0
40
0
40
0
40
0.033241323418943862
40
0.067987459436955985
40
0.067987459436955985
40
0.067987459436955985
40
0.067987459436955985
10
-35.683459315845035
20
-67.380261313205679
30
0
10
-35.740756014743006
20
-67.477068043166526
30
3.5527136788005009e-14
10
-35.857943195984369
20
-67.675063879357793
30
0
10
-36.052683833641368
20
-67.797934885594913
30
0
10
-36.152209315845035
20
-67.860730182414969
30
0
0
SPLINE
5
375
100
AcDbEntity
8
0
100
AcDbSpline
70
0
71
3
72
9
73
5
74
0
42
0.000000001
43
0.0000000001
44
0.0000000001
40
0
40
0
40
0
40
0
40
0.038027279689307809
40
0.081390228001640891
40
0.081390228001640891
40
0.081390228001640891
40
0.081390228001640891
10
-36.152209315845035
20
-67.860730182414969
30
0
10
-36.269421422245244
20
-67.911940632651351
30
3.5527136788005009e-14
10
-36.520291853746258
20
-68.021546953557277
30
0
10
-36.794305988335431
20
-68.031309930197551
30
0
10
-36.940294776507876
20
-68.036511432414983
30
3.5527136788005009e-14
0
LWPOLYLINE
5
376
100
AcDbEntity
8
0
100
AcDbPolyline
90
4
70
1
43
0.0
10
-38.876818690845035
20
-66.773816239124258
10
-38.876818690845035
20
-63.662488054519656
10
-39.404162440845035
20
-63.662488054519635
10
-39.404162440845035
20
-66.77381623912423
0
SPLINE
5
377
100
AcDbEntity
8
0
100
AcDbSpline
70
0
71
3
72
9
73
5
74
0
42
0.000000001
43
0.0000000001
44
0.0000000001
40
0
40
0
40
0
40
0
40
0.053836546638846627
40
0.097273527149644406
40
0.097273527149644406
40
0.097273527149644406
40
0.097273527149644406
10
-41.287951741763607
20
-66.844128858333576
30
0
10
-41.470778734091454
20
-66.838926272798631
30
3.5527136788005009e-14
10
-41.8011161630724
20
-66.829526081351091
30
0
10
-42.086359130065617
20
-66.66544527239212
30
0
10
-42.213732872554317
20
-66.592175852542837
30
3.5527136788005009e-14
0
SPLINE
5
378
100
AcDbEntity
8
0
100
AcDbSpline
70
0
71
3
72
9
73
5
74
0
42
0.000000001
43
0.0000000001
44
0.0000000001
40
0
40
0
40
0
40
0
40
0.04062434316870709
40
0.086414084762371862
40
0.086414084762371862
40
0.086414084762371862
40
0.086414084762371862
10
-42.213732872554317
20
-66.592175852542837
30
3.5527136788005009e-14
10
-42.310392695556885
20
-66.493615058161893
30
3.5527136788005009e-14
10
-42.516002669443068
20
-66.283961432390953
30
3.5527136788005009e-14
10
-42.582692094565608
20
-65.997106224954621
30
0
10
-42.618029985972896
20
-65.845105242019599
30
3.5527136788005009e-14
0
LINE
5
379
100
AcDbEntity
8
0
100
AcDbLine
10
-42.618029985972896
20
-65.845105242019585
30
3.5527136788005035e-14
11
-42.096545372554317
21
-65.763074051624258
31
3.5535810405384893e-14
0
SPLINE
5
380
100
AcDbEntity
8
0
100
AcDbSpline
70
0
71
3
72
9
73
5
74
0
42
0.000000001
43
0.0000000001
44
0.0000000001
40
0
40
0
40
0
40
0
40
0.028896170708258426
40
0.054816519554783352
40
0.054816519554783352
40
0.054816519554783352
40
0.054816519554783352
10
-42.096545372554317
20
-65.763074051624258
30
0
10
-42.077396099945489
20
-65.859740323631215
30
0
10
-42.041069609248197
20
-66.043117859819503
30
3.5527136788005009e-14
10
-41.913638363489305
20
-66.179197007969449
30
0
10
-41.853381667682186
20
-66.243542920833562
30
0
0
SPLINE
5
381
100
AcDbEntity
8
0
100
AcDbSpline
70
0
71
3
72
9
73
5
74
0
42
0.000000001
43
0.0000000001
44
0.0000000001
40
0
40
0
40
0
40
0
40
0.027222139457317145
40
0.059572763876374599
40
0.059572763876374599
40
0.059572763876374599
40
0.059572763876374599
10
-41.853381667682186
20
-66.243542920833562
30
0
10
-41.774966451391258
20
-66.292153806738057
30
0
10
-41.603363070557116
20
-66.398533572823368
30
0
10
-41.400853105690736
20
-66.406311249985905
30
0
10
-41.290881310054317
20
-66.410534869914969
30
0
0
SPLINE
5
382
100
AcDbEntity
8
0
100
AcDbSpline
70
0
71
3
72
9
73
5
74
0
42
0.000000001
43
0.0000000001
44
0.0000000001
40
0
40
0
40
0
40
0
40
0.031851812073295148
40
0.056680416257351388
40
0.056680416257351388
40
0.056680416257351388
40
0.056680416257351388
10
-41.290881310054317
20
-66.410534869914969
30
0
10
-41.18253109020722
20
-66.408098255111653
30
0
10
-40.989721477103359
20
-66.403762290143845
30
3.5527136788005009e-14
10
-40.824286671472251
20
-66.306608347344053
30
0
10
-40.751818690845028
20
-66.264050494914969
30
0
0
SPLINE
5
383
100
AcDbEntity
8
0
100
AcDbSpline
70
0
71
3
72
9
73
5
74
0
42
0.000000001
43
0.0000000001
44
0.0000000001
40
0
40
0
40
0
40
0
40
0.02087606539276278
40
0.04006286260579462
40
0.04006286260579462
40
0.04006286260579462
40
0.04006286260579462
10
-40.751818690845028
20
-66.264050494914969
30
0
10
-40.700576349897979
20
-66.213686270357968
30
0
10
-40.602238141699388
20
-66.11703323872996
30
0
10
-40.584522004902759
20
-65.980706900439785
30
3.5527136788005009e-14
10
-40.576037440845028
20
-65.915417861228917
30
0
0
SPLINE
5
384
100
AcDbEntity
8
0
100
AcDbSpline
70
0
71
3
72
9
73
5
74
0
42
0.000000001
43
0.0000000001
44
0.0000000001
40
0
40
0
40
0
40
0
40
0.016431897575522728
40
0.033267608309510047
40
0.033267608309510047
40
0.033267608309510047
40
0.033267608309510047
10
-40.576037440845028
20
-65.915417861228917
30
0
10
-40.582815505793732
20
-65.858819819166627
30
3.5527136788005009e-14
10
-40.596538206338408
20
-65.744232840653737
30
0
10
-40.686024740970282
20
-65.671151762539267
30
3.5527136788005009e-14
10
-40.731311116763607
20
-65.634167682414997
30
0
0
SPLINE
5
385
100
AcDbEntity
8
0
100
AcDbSpline
70
0
71
3
72
9
73
5
74
0
42
0.000000001
43
0.0000000001
44
0.0000000001
40
0
40
0
40
0
40
0
40
0.020513670587039391
40
0.05689296018710055
40
0.05689296018710055
40
0.05689296018710055
40
0.05689296018710055
10
-40.731311116763607
20
-65.634167682414997
30
0
10
-40.793791534170424
20
-65.606109393656482
30
0
10
-40.967075778202599
20
-65.52829206211247
30
0
10
-41.152077412403862
20
-65.483865021606647
30
0
10
-41.270373735972896
20
-65.455456864124272
30
0
0
SPLINE
5
386
100
AcDbEntity
8
0
100
AcDbSpline
70
0
71
3
72
9
73
5
74
0
42
0.000000001
43
0.0000000001
44
0.0000000001
40
0
40
0
40
0
40
0
40
0.050998658514029176
40
0.08448288352820707
40
0.08448288352820707
40
0.08448288352820707
40
0.08448288352820707
10
-41.270373735972896
20
-65.455456864124272
30
0
10
-41.435489104031745
20
-65.414073454821562
30
0
10
-41.709014385183906
20
-65.345518911427845
30
3.5527136788005009e-14
10
-41.971860501022022
20
-65.243813941813329
30
3.5527136788005009e-14
10
-42.076037798472896
20
-65.203503858333548
30
3.5527136788005009e-14
0
SPLINE
5
387
100
AcDbEntity
8
0
100
AcDbSpline
70
0
71
3
72
9
73
5
74
0
42
0.000000001
43
0.0000000001
44
0.0000000001
40
0
40
0
40
0
40
0
40
0.023443103265806727
40
0.045520124607167291
40
0.045520124607167291
40
0.045520124607167291
40
0.045520124607167291
10
-42.076037798472896
20
-65.203503858333548
30
3.5527136788005009e-14
10
-42.145231333808496
20
-65.165064750376104
30
3.5527136788005009e-14
10
-42.279586342817964
20
-65.090426467032273
30
3.5527136788005009e-14
10
-42.371367870444502
20
-64.967314095546215
30
3.5527136788005009e-14
10
-42.415881429263607
20
-64.907605242019613
30
0
0
SPLINE
5
388
100
AcDbEntity
8
0
100
AcDbSpline
70
0
71
3
72
9
73
5
74
0
42
0.000000001
43
0.0000000001
44
0.0000000001
40
0
40
0
40
0
40
0
40
0.02175403078021642
40
0.043838943422010515
40
0.043838943422010515
40
0.043838943422010515
40
0.043838943422010515
10
-42.415881429263607
20
-64.907605242019613
30
0
10
-42.449205898593632
20
-64.842258398225397
30
3.5527136788005009e-14
10
-42.516361707109667
20
-64.710570775970609
30
0
10
-42.525523758971637
20
-64.563001519404764
30
0
10
-42.530139360972896
20
-64.488659989124287
30
3.5527136788005009e-14
0
SPLINE
5
389
100
AcDbEntity
8
0
100
AcDbSpline
70
0
71
3
72
9
73
5
74
0
42
0.000000001
43
0.0000000001
44
0.0000000001
40
0
40
0
40
0
40
0
40
0.020132012967609088
40
0.039814584471208912
40
0.039814584471208912
40
0.039814584471208912
40
0.039814584471208912
10
-42.530139360972896
20
-64.488659989124287
30
3.5527136788005009e-14
10
-42.526412723311324
20
-64.421005421990515
30
0
10
-42.519042644114116
20
-64.287206656693542
30
0
10
-42.463732095091444
20
-64.165190262339507
30
0
10
-42.436389003345028
20
-64.104870747810324
30
0
0
SPLINE
5
390
100
AcDbEntity
8
0
100
AcDbSpline
70
0
71
3
72
9
73
5
74
0
42
0.000000001
43
0.0000000001
44
0.0000000001
40
0
40
0
40
0
40
0
40
0.019890889423890418
40
0.039701756744539837
40
0.039701756744539837
40
0.039701756744539837
40
0.039701756744539837
10
-42.436389003345028
20
-64.104870747810324
30
0
10
-42.401410096982829
20
-64.047903443721822
30
0
10
-42.331593006254153
20
-63.934198018030955
30
3.5527136788005009e-14
10
-42.227559301089244
20
-63.850657966429992
30
0
10
-42.175647292682186
20
-63.808972131496382
30
0
0
SPLINE
5
391
100
AcDbEntity
8
0
100
AcDbSpline
70
0
71
3
72
9
73
5
74
0
42
0.000000001
43
0.0000000001
44
0.0000000001
40
0
40
0
40
0
40
0
40
0.016733901498052491
40
0.036845491545741821
40
0.036845491545741821
40
0.036845491545741821
40
0.036845491545741821
10
-42.175647292682186
20
-63.808972131496382
30
0
10
-42.12823144848258
20
-63.779156108743457
30
0
10
-42.023829012099569
20
-63.713505787185156
30
3.5527136788005009e-14
10
-41.905985830947614
20
-63.676711992152661
30
0
10
-41.841662798472896
20
-63.65662861991499
30
3.5527136788005009e-14
0
SPLINE
5
392
100
AcDbEntity
8
0
100
AcDbSpline
70
0
71
3
72
9
73
5
74
0
42
0.000000001
43
0.0000000001
44
0.0000000001
40
0
40
0
40
0
40
0
40
0.022641164283106901
40
0.046280153320092915
40
0.046280153320092915
40
0.046280153320092915
40
0.046280153320092915
10
-41.841662798472896
20
-63.65662861991499
30
3.5527136788005009e-14
10
-41.768315181343674
20
-63.637832181771053
30
0
10
-41.618387424804396
20
-63.599410922674409
30
0
10
-41.463662239191819
20
-63.594621683944254
30
3.5527136788005009e-14
10
-41.384631667682186
20
-63.592175435310317
30
0
0
SPLINE
5
393
100
AcDbEntity
8
0
100
AcDbSpline
70
0
71
3
72
9
73
5
74
0
42
0.000000001
43
0.0000000001
44
0.0000000001
40
0
40
0
40
0
40
0
40
0.034451620088733655
40
0.065292867953296294
40
0.065292867953296294
40
0.065292867953296294
40
0.065292867953296294
10
-41.384631667682186
20
-63.592175435310317
30
0
10
-41.269205160858377
20
-63.595512564588304
30
0
10
-41.050448317233972
20
-63.601837107258
30
3.5527136788005009e-14
10
-40.841654338752051
20
-63.666907775038396
30
3.5527136788005009e-14
10
-40.743029985972896
20
-63.697644066101027
30
0
0
SPLINE
5
394
100
AcDbEntity
8
0
100
AcDbSpline
70
0
71
3
72
9
73
5
74
0
42
0.000000001
43
0.0000000001
44
0.0000000001
40
0
40
0
40
0
40
0
40
0.027188594774043812
40
0.050601358347020217
40
0.050601358347020217
40
0.050601358347020217
40
0.050601358347020217
10
-40.743029985972896
20
-63.697644066101027
30
0
10
-40.65833726221161
20
-63.733389054831456
30
3.5527136788005009e-14
10
-40.500713563743709
20
-63.799914927127858
30
0
10
-40.385965820875484
20
-63.926283741932188
30
0
10
-40.332873139926448
20
-63.984753381496411
30
3.5527136788005009e-14
0
SPLINE
5
395
100
AcDbEntity
8
0
100
AcDbSpline
70
0
71
3
72
9
73
5
74
0
42
0.000000001
43
0.0000000001
44
0.0000000001
40
0
40
0
40
0
40
0
40
0.023721898777306415
40
0.051718802789895164
40
0.051718802789895164
40
0.051718802789895164
40
0.051718802789895164
10
-40.332873139926448
20
-63.984753381496411
30
3.5527136788005009e-14
10
-40.291807445926935
20
-64.053037775790472
30
0
10
-40.202275467507803
20
-64.201912330701788
30
3.5527136788005009e-14
10
-40.169159433371817
20
-64.372745336787375
30
0
10
-40.151232753345028
20
-64.465222250705693
30
0
0
LINE
5
396
100
AcDbEntity
8
0
100
AcDbLine
10
-40.15123275334502
20
-64.465222250705693
30
-1.5976526393600315e-29
11
-40.666858230182186
21
-64.535534869914983
31
3.5518463170625125e-14
0
SPLINE
5
397
100
AcDbEntity
8
0
100
AcDbSpline
70
0
71
3
72
9
73
5
74
0
42
0.000000001
43
0.0000000001
44
0.0000000001
40
0
40
0
40
0
40
0
40
0.022467543185331972
40
0.043567973228934055
40
0.043567973228934055
40
0.043567973228934055
40
0.043567973228934055
10
-40.666858230182186
20
-64.535534869914983
30
0
10
-40.683257029416367
20
-64.460610725731641
30
0
10
-40.715056787855843
20
-64.315321448615194
30
0
10
-40.820748662767855
20
-64.211039487670433
30
0
10
-40.871936355182186
20
-64.160534631496404
30
3.5527136788005009e-14
0
SPLINE
5
398
100
AcDbEntity
8
0
100
AcDbSpline
70
0
71
3
72
9
73
5
74
0
42
0.000000001
43
0.0000000001
44
0.0000000001
40
0
40
0
40
0
40
0
40
0.022600829077753386
40
0.050054464769717547
40
0.050054464769717547
40
0.050054464769717547
40
0.050054464769717547
10
-40.871936355182186
20
-64.160534631496404
30
3.5527136788005009e-14
10
-40.937651981977297
20
-64.121324325822997
30
3.5527136788005009e-14
10
-41.083193568744711
20
-64.034484552946253
30
3.5527136788005009e-14
10
-41.253265335105489
20
-64.028856160001951
30
0
10
-41.346545491763607
20
-64.025769125705693
30
0
0
SPLINE
5
399
100
AcDbEntity
8
0
100
AcDbSpline
70
0
71
3
72
9
73
5
74
0
42
0.000000001
43
0.0000000001
44
0.0000000001
40
0
40
0
40
0
40
0
40
0.031272442580226725
40
0.053873056244961581
40
0.053873056244961581
40
0.053873056244961581
40
0.053873056244961581
10
-41.346545491763607
20
-64.025769125705693
30
0
10
-41.452672946038511
20
-64.026624238979409
30
0
10
-41.63549877739527
20
-64.028097343146896
30
0
10
-41.797244858197246
20
-64.111075515821724
30
0
10
-41.865099940845028
20
-64.145886193996404
30
0
0
SPLINE
5
400
100
AcDbEntity
8
0
100
AcDbSpline
70
0
71
3
72
9
73
5
74
0
42
0.000000001
43
0.0000000001
44
0.0000000001
40
0
40
0
40
0
40
0
40
0.017481021599413525
40
0.033060279231962086
40
0.033060279231962086
40
0.033060279231962086
40
0.033060279231962086
10
-41.865099940845028
20
-64.145886193996404
30
0
10
-41.910342820997798
20
-64.185912963940154
30
3.5527136788005009e-14
10
-41.995906598984298
20
-64.261611983220504
30
0
10
-42.012536823939172
20
-64.37411906583344
30
0
10
-42.020373616763607
20
-64.427136670833548
30
0
0
SPLINE
5
401
100
AcDbEntity
8
0
100
AcDbSpline
70
0
71
3
72
9
73
5
74
0
42
0.000000001
43
0.0000000001
44
0.0000000001
40
0
40
0
40
0
40
0
40
0.0098735597022249696
40
0.019840116773446891
40
0.019840116773446891
40
0.019840116773446891
40
0.019840116773446891
10
-42.020373616763607
20
-64.427136670833548
30
0
10
-42.017637931552194
20
-64.460525226073187
30
0
10
-42.012140794178592
20
-64.527616817639881
30
3.5527136788005009e-14
10
-41.974719220724538
20
-64.583589235769338
30
0
10
-41.955920730182186
20
-64.611706625705679
30
0
0
SPLINE
5
402
100
AcDbEntity
8
0
100
AcDbSpline
70
0
71
3
72
9
73
5
74
0
42
0.000000001
43
0.0000000001
44
0.0000000001
40
0
40
0
40
0
40
0
40
0.011347847015125246
40
0.02484607057554996
40
0.02484607057554996
40
0.02484607057554996
40
0.02484607057554996
10
-41.955920730182186
20
-64.611706625705679
30
0
10
-41.929672569813725
20
-64.639464466494189
30
0
10
-41.872202316282468
20
-64.70024015992189
30
0
10
-41.795462771251749
20
-64.733994182213252
30
0
10
-41.753772173472896
20
-64.752331864124272
30
3.5527136788005009e-14
0
SPLINE
5
403
100
AcDbEntity
8
0
100
AcDbSpline
70
0
71
3
72
9
73
5
74
0
42
0.000000001
43
0.0000000001
44
0.0000000001
40
0
40
0
40
0
40
0
40
0.016332388607442461
40
0.048496689017658447
40
0.048496689017658447
40
0.048496689017658447
40
0.048496689017658447
10
-41.753772173472896
20
-64.752331864124272
30
3.5527136788005009e-14
10
-41.701843699925107
20
-64.768695228063009
30
0
10
-41.547649534372283
20
-64.817283893891002
30
0
10
-41.391508589709346
20
-64.859258613764766
30
0
10
-41.287951741763607
20
-64.887097369914997
30
3.5527136788005009e-14
0
SPLINE
5
404
100
AcDbEntity
8
0
100
AcDbSpline
70
0
71
3
72
9
73
5
74
0
42
0.000000001
43
0.0000000001
44
0.0000000001
40
0
40
0
40
0
40
0
40
0.049377441347322838
40
0.081766347264449868
40
0.081766347264449868
40
0.081766347264449868
40
0.081766347264449868
10
-41.287951741763607
20
-64.887097369914997
30
3.5527136788005009e-14
10
-41.128731037316051
20
-64.929361541857631
30
0
10
-40.865070242906434
20
-64.999348703314681
30
0
10
-40.609779550130156
20
-65.095216523294511
30
3.5527136788005009e-14
10
-40.508654985972896
20
-65.133191239124258
30
3.5527136788005009e-14
0
SPLINE
5
405
100
AcDbEntity
8
0
100
AcDbSpline
70
0
71
3
72
9
73
5
74
0
42
0.000000001
43
0.0000000001
44
0.0000000001
40
0
40
0
40
0
40
0
40
0.022975773488647242
40
0.044893311226457067
40
0.044893311226457067
40
0.044893311226457067
40
0.044893311226457067
10
-40.508654985972896
20
-65.133191239124258
30
3.5527136788005009e-14
10
-40.438987912277966
20
-65.167359468370719
30
3.5527136788005009e-14
10
-40.302862544260719
20
-65.234122180423697
30
0
10
-40.206881387418818
20
-65.351349821592095
30
0
10
-40.160022054263607
20
-65.40858198333359
30
0
0
SPLINE
5
406
100
AcDbEntity
8
0
100
AcDbSpline
70
0
71
3
72
9
73
5
74
0
42
0.000000001
43
0.0000000001
44
0.0000000001
40
0
40
0
40
0
40
0
40
0.022446667761634908
40
0.047402058507314042
40
0.047402058507314042
40
0.047402058507314042
40
0.047402058507314042
10
-40.160022054263607
20
-65.40858198333359
30
0
10
-40.123306603572644
20
-65.474948807846928
30
0
10
-40.045772247014412
20
-65.6150998597507
30
0
10
-40.038089781065565
20
-65.775374921937825
30
0
10
-40.034045253345028
20
-65.859753679519628
30
0
0
SPLINE
5
407
100
AcDbEntity
8
0
100
AcDbSpline
70
0
71
3
72
9
73
5
74
0
42
0.000000001
43
0.0000000001
44
0.0000000001
40
0
40
0
40
0
40
0
40
0.025927036115733361
40
0.052756200960339422
40
0.052756200960339422
40
0.052756200960339422
40
0.052756200960339422
10
-40.034045253345028
20
-65.859753679519628
30
0
10
-40.040946211344313
20
-65.947068529958443
30
3.5527136788005009e-14
10
-40.054988245512959
20
-66.124736342662231
30
3.5527136788005009e-14
10
-40.144034472484606
20
-66.279232059250631
30
0
10
-40.189318929263607
20
-66.357800852542852
30
0
0
SPLINE
5
408
100
AcDbEntity
8
0
100
AcDbSpline
70
0
71
3
72
9
73
5
74
0
42
0.000000001
43
0.0000000001
44
0.0000000001
40
0
40
0
40
0
40
0
40
0.027792069582465304
40
0.057662129752650684
40
0.057662129752650684
40
0.057662129752650684
40
0.057662129752650684
10
-40.189318929263607
20
-66.357800852542852
30
0
10
-40.247472726875841
20
-66.431386289688632
30
0
10
-40.368128434561669
20
-66.584059087661288
30
0
10
-40.541758174417936
20
-66.672393290514776
30
0
10
-40.631701622554317
20
-66.718152057414954
30
3.5527136788005009e-14
0
SPLINE
5
409
100
AcDbEntity
8
0
100
AcDbSpline
70
0
71
3
72
9
73
5
74
0
42
0.000000001
43
0.0000000001
44
0.0000000001
40
0
40
0
40
0
40
0
40
0.032320097087188984
40
0.067179440401558654
40
0.067179440401558654
40
0.067179440401558654
40
0.067179440401558654
10
-40.631701622554317
20
-66.718152057414954
30
3.5527136788005009e-14
10
-40.733702940630288
20
-66.754880984229018
30
0
10
-40.945719366511675
20
-66.831224466219908
30
0
10
-41.171035453390239
20
-66.839720351895394
30
0
10
-41.287951741763607
20
-66.844128858333576
30
0
0
SPLINE
5
410
100
AcDbEntity
8
0
100
AcDbSpline
70
0
71
3
72
9
73
5
74
0
42
0.000000001
43
0.0000000001
44
0.0000000001
40
0
40
0
40
0
40
0
40
0.032619167554384564
40
0.069359157108648761
40
0.069359157108648761
40
0.069359157108648761
40
0.069359157108648761
10
-47.771350119658962
20
-66.700574051624287
30
0
10
-47.878194436106597
20
-66.721916019871259
30
0
10
-48.105380850913271
20
-66.767296115061669
30
0
10
-48.337089158979708
20
-66.771558451974329
30
0
10
-48.45982653314735
20
-66.773816239124244
30
0
0
LINE
5
411
100
AcDbEntity
8
0
100
AcDbLine
10
-48.45982653314735
20
-66.773816239124244
30
0
11
-50.009631414362445
21
-66.77381623912423
31
3.5527136788005009e-14
0
LINE
5
412
100
AcDbEntity
8
0
100
AcDbLine
10
-50.009631414362445
20
-66.77381623912423
30
3.5527136788005009e-14
11
-50.009631414362445
21
-62.478894185310317
31
3.5527136788005009e-14
0
LINE
5
413
100
AcDbEntity
8
0
100
AcDbLine
10
-50.009631414362445
20
-62.478894185310317
30
3.5527136788005009e-14
11
-48.530139152356639
21
-62.478894185310324
31
3.5527136788005009e-14
0
SPLINE
5
414
100
AcDbEntity
8
0
100
AcDbSpline
70
0
71
3
72
9
73
5
74
0
42
0.000000001
43
0.0000000001
44
0.0000000001
40
0
40
0
40
0
40
0
40
0.044191819390741502
40
0.076819545069675282
40
0.076819545069675282
40
0.076819545069675282
40
0.076819545069675282
10
-48.530139152356639
20
-62.47889418531031
30
0
10
-48.382522165658855
20
-62.479503767438629
30
0
10
-48.125916533235952
20
-62.480563416541628
30
0
10
-47.872938551242576
20
-62.522574183068883
30
0
10
-47.765490685054317
20
-62.540417503601034
30
0
0
SPLINE
5
415
100
AcDbEntity
8
0
100
AcDbSpline
70
0
71
3
72
9
73
5
74
0
42
0.000000001
43
0.0000000001
44
0.0000000001
40
0
40
0
40
0
40
0
40
0.036227745715517137
40
0.070620213638086959
40
0.070620213638086959
40
0.070620213638086959
40
0.070620213638086959
10
-47.765490685054317
20
-62.540417503601034
30
0
10
-47.648156180857356
20
-62.57346724632265
30
3.5527136788005009e-14
10
-47.419431274301559
20
-62.637892449867252
30
0
10
-47.22856223859084
20
-62.779211476767301
30
0
10
-47.135607872554317
20
-62.848034691101049
30
0
0
SPLINE
5
416
100
AcDbEntity
8
0
100
AcDbSpline
70
0
71
3
72
9
73
5
74
0
42
0.000000001
43
0.0000000001
44
0.0000000001
40
0
40
0
40
0
40
0
40
0.044178719204826286
40
0.090071720784911519
40
0.090071720784911519
40
0.090071720784911519
40
0.090071720784911519
10
-47.135607872554317
20
-62.848034691101049
30
0
10
-47.029023986002016
20
-62.951825303459614
30
0
10
-46.811720400870897
20
-63.163433951802418
30
0
10
-46.690523488030564
20
-63.441637311605731
30
0
10
-46.628771696635738
20
-63.58338643241499
30
0
0
SPLINE
5
417
100
AcDbEntity
8
0
100
AcDbSpline
70
0
71
3
72
9
73
5
74
0
42
0.000000001
43
0.0000000001
44
0.0000000001
40
0
40
0
40
0
40
0
40
0.049425202636347178
40
0.10379064447216094
40
0.10379064447216094
40
0.10379064447216094
40
0.10379064447216094
10
-46.628771696635738
20
-63.58338643241499
30
0
10
-46.579241826621583
20
-63.741359701199578
30
0
10
-46.475231385486651
20
-64.073096274889778
30
3.5527136788005009e-14
10
-46.464480949491204
20
-64.420794118023849
30
0
10
-46.458849881240383
20
-64.602917920833562
30
3.5527136788005009e-14
0
SPLINE
5
418
100
AcDbEntity
8
0
100
AcDbSpline
70
0
71
3
72
9
73
5
74
0
42
0.000000001
43
0.0000000001
44
0.0000000001
40
0
40
0
40
0
40
0
40
0.046230906629031301
40
0.087702085580761563
40
0.087702085580761563
40
0.087702085580761563
40
0.087702085580761563
10
-46.458849881240383
20
-64.602917920833562
30
3.5527136788005009e-14
10
-46.46248809667938
20
-64.757525488616494
30
0
10
-46.469389953144201
20
-65.050822919487587
30
3.5527136788005009e-14
10
-46.539809111859697
20
-65.335494360545766
30
0
10
-46.573107812949672
20
-65.470105301624272
30
3.5527136788005009e-14
0
SPLINE
5
419
100
AcDbEntity
8
0
100
AcDbSpline
70
0
71
3
72
9
73
5
74
0
42
0.000000001
43
0.0000000001
44
0.0000000001
40
0
40
0
40
0
40
0
40
0.036946876639790745
40
0.06943375682757183
40
0.06943375682757183
40
0.06943375682757183
40
0.06943375682757183
10
-46.573107812949672
20
-65.470105301624272
30
3.5527136788005009e-14
10
-46.611726982355783
20
-65.587631409100851
30
0
10
-46.684303455965988
20
-65.808496605555234
30
3.5527136788005009e-14
10
-46.808136960913522
20
-66.005080341466922
30
0
10
-46.866076562949672
20
-66.09705854583359
30
0
0
SPLINE
5
420
100
AcDbEntity
8
0
100
AcDbSpline
70
0
71
3
72
9
73
5
74
0
42
0.000000001
43
0.0000000001
44
0.0000000001
40
0
40
0
40
0
40
0
40
0.028941062706245999
40
0.055527139334970957
40
0.055527139334970957
40
0.055527139334970957
40
0.055527139334970957
10
-46.866076562949672
20
-66.09705854583359
30
0
10
-46.925471627331454
20
-66.173696768255681
30
3.5527136788005009e-14
10
-47.039428673387874
20
-66.320737023757459
30
0
10
-47.187675212424352
20
-66.432970080331714
30
0
10
-47.258654807158962
20
-66.486706625705693
30
3.5527136788005009e-14
0
SPLINE
5
421
100
AcDbEntity
8
0
100
AcDbSpline
70
0
71
3
72
9
73
5
74
0
42
0.000000001
43
0.0000000001
44
0.0000000001
40
0
40
0
40
0
40
0
40
0.026440515016122313
40
0.055763950620908706
40
0.055763950620908706
40
0.055763950620908706
40
0.055763950620908706
10
-47.258654807158962
20
-66.486706625705693
30
3.5527136788005009e-14
10
-47.33511511586272
20
-66.531328705439392
30
0
10
-47.496372522400264
20
-66.625438197987307
30
0
10
-47.676585334610948
20
-66.674680185759243
30
0
10
-47.771350119658962
20
-66.700574051624287
30
0
0
LWPOLYLINE
5
422
100
AcDbEntity
8
0
100
AcDbPolyline
90
6
70
1
43
0.0
10
-77.875
20
-33.491957341119715
10
12.125
20
-33.491957341119694
10
12.125000000000011
20
-216.99195734111976
42
-0.41421356237309598
10
10.125000000000011
20
-218.99195734111973
10
-75.875
20
-218.99195734111973
42
-0.41421356237310153
10
-77.875
20
-216.9919573411197
0
ENDSEC
0
SECTION
2
OBJECTS
0
DICTIONARY
5
C
100
AcDbDictionary
3
ACAD_GROUP
350
D
3
ACAD_MLINESTYLE
350
17
0
DICTIONARY
5
D
100
AcDbDictionary
0
DICTIONARY
5
1A
330
C
100
AcDbDictionary
0
DICTIONARY
5
17
100
AcDbDictionary
0
ENDSEC
0
EOF
